<?xml version="1.0" encoding="UTF-8"?>
<svg id="Layer_1" xmlns="http://www.w3.org/2000/svg" version="1.1" viewBox="0 0 100 100">
  <!-- Generator: Adobe Illustrator 29.1.0, SVG Export Plug-In . SVG Version: 2.1.0 Build 142)  -->
  <defs>
    <style>
      .st0 {
        fill: #f6a621;
      }

      .st1 {
        fill: #23201f;
      }
    </style>
  </defs>
  <path class="st1" d="M56.7,21.6c.4.1.8.2,1.2.4,3,.9,5.9,2.6,7.4,5.7s.7,1.4.9,2.1c.3,1.2.3,2.4.4,3.7.4,6,0,12.1.1,18.1.3.8.4,1.7.8,2.5.6,1.2,1.7,2.2,2.2,3.2s.4,1.4-.4,2.2c-1.3,1.2-2.9,2.4-4.3,3.5s-2.2,2.6-4,1.1-2.4-2.3-3.2-3.7c-.2,0-.6-.9-.7-.9-.3,0-.4.3-.6.5-1.6,1.5-3.3,2.8-5.2,3.7s-1.8.8-2.8,1-1,0-1.4.1c-.7.2-1.1,0-1.8.1s-1.2.2-1.8.1-1.5-.1-2.1-.3c-5-1-7.9-3.9-8.9-8.9-1.2-6,1.1-11.6,6.3-14.6s4-1.7,6.4-2.3.7-.3.9-.3c.4,0,1.2,0,1.6-.1s0-.1.1-.1c.3,0,.6,0,.9,0s0-.1.1-.1c.2,0,.6,0,.8,0s.2-.2.5-.2c1.6-.1,3.2-.3,4.8-.4s.3,0,.4,0v-4c-.2-.1,0-.4-.1-.7-.1-.8-1-2.3-1.7-2.8s-.2,0-.2,0-.1-.2-.2-.2c-1.6-.9-4.7-.9-6.4,0s-.2.2-.2.3c-.8.5-1.7,1.2-2.1,2.1s-.1.3-.1.4c-.3.8-.4,2-1.1,2.4s-.7.3-1.1.2-1.4-.2-2-.3c-1.1-.1-2.2-.1-3.3-.3s0-.1-.2-.1c-.6,0-1.2,0-1.9-.1s-.8-.4-.9-.6,0-.1,0-.2,0,0-.1,0c0-.1,0-1.1,0-1.2s.1,0,.1,0c0-.3,0-.6.1-.8.9-3.1,2.8-5.7,5.6-7.5,4.2-2.7,12.1-3.8,17.2-2.3ZM55.4,43.9c-.4-.1-1.1,0-1.6.1-.7,0-1,0-1.6.1-1.6.4-2.6.4-4.1,1s-2.6,1.4-3.4,3c-1.7,3-1,8.1,2.7,9s0,.1,0,.1c.1,0,2.2,0,2.3,0s0-.1,0-.1c3.1-.7,4.7-3.5,5.4-6.2s.3-2.1.4-3.1,0-2.4,0-3.7c0,0-.1-.2-.2-.2Z"/>
  <path class="st0" d="M15.4,64.8s0,.1,0,.1c.2,0,.4,0,.6.1s0,.2.3.1h0c.2,0,.3.2.3.2.9.4,1.8.9,2.6,1.3,2.3,1.1,4.8,2.2,7.3,3.2s3.3,1,5.1,1.5,0,.1.1.1c.1,0,.3,0,.5,0h0c.3,0,.5.2.7.3.5.1,1.2.3,1.7.4,1.6.4,3.4.6,5,1s.6,0,.8,0,0,.1.1.1c.3,0,.7,0,.9,0s0,.1.1.1c.3,0,.6,0,.9,0s0,.1.2.1c.8.1,1.9,0,2.7.1s0,.1.2.1c.7,0,1.6-.1,2.3,0,1.3.2,4.1.3,5.4.1s0-.1.2-.1c.7,0,1.6,0,2.3,0s0-.1.2-.1c.4,0,1,0,1.4,0s0-.1.2-.1c.3,0,.7,0,1.1,0s0-.1.2-.1c.3,0,.7,0,.9,0s0-.1.1-.1c.5-.1,1.4,0,1.9-.3l4.2-.7h0c.2-.2.4,0,.6-.1s0-.1,0-.1c.5-.1,1-.2,1.5-.3s.4-.2.6-.1h0c.2-.2.3-.1.5-.1s0-.1.1-.1c1.4-.4,2.6-.8,3.9-1.1s2.4-1,3.4-1.4.6-.3.7-.3c.1,0,1.1,0,1.2,0s.4.3.4.4c.1.3.1.6,0,.9s-.3.5-.5.4h0c-.2,0-.4.4-.5.5-2.3,1.6-4.7,2.8-7.3,3.9s-2.7,1.1-4.4,1.6-4.6,1.4-6.9,1.8-1.1,0-1.4.1,0,.1-.1.1c-.3,0-.6,0-.9,0s0,.1-.1.1c-.3,0-.7,0-.9,0-.5.1-.8,0-1.3.1s0,.1-.2.1c-.5,0-1.2,0-1.7,0-1.8.2-3.6.2-5.4.1s-1.6,0-2.3-.1,0-.1-.2-.1c-.7,0-1.6,0-2.3-.1s0-.1-.1-.1c-.2,0-.7,0-.9,0s0-.1-.1-.1c-.3,0-.5,0-.8-.1s-.7,0-.8,0h0c-1.2-.3-2.4-.5-3.5-.8-1.8-.5-3.8-1.1-5.7-1.8-5-1.9-10.1-4.9-14.5-8.6s-1.2-.8-1.3-1.1-.3-.7,0-.9.1,0,.2,0,0-.2.3,0Z"/>
  <path class="st0" d="M81.9,63.5c.4.2.6,0,1,.1s0,.1.1.1c.2,0,.5,0,.6,0s.3.1.4.1c.6.2,1.1.5,1.2,1.1s0,1.9-.1,2.6c-.5,2.7-2,6.1-4.1,8.1s-1.6,1-1.4-.3.7-1.6.9-2.2c.5-1.5,1-2.9,1.3-4.4s.3-1.8-.6-2.3-4.8-.3-6.3-.2-.5,0-.7,0,0,.1-.1.1c-.3,0-.7,0-1.1,0s0,.1-.1.1c0,0-.4,0-.5,0s-.3-.2-.3-.2c-.2-.3.2-.9.4-1.1,1-.7,2.3-1.1,3.5-1.4s5.1-.9,5.9-.5Z"/>
</svg>