<svg xmlns="http://www.w3.org/2000/svg" id="Layer_1" version="1.1" viewBox="0 0 100 100">
  <!-- Generator: Adobe Illustrator 29.1.0, SVG Export Plug-In . SVG Version: 2.1.0 Build 142)  -->
  <path d="M97.3,49.9v1h-3.9v2h3.7c.2.3.2.9,0,1.2h-3.7v2.2h3.9v1.1c-.1,0-.3,0-.4,0-1.3,0-3.4.1-4.7,0s-.2,0-.3-.1v-7.5c0-.1.2-.1.3-.1,1.2-.1,3.4,0,4.7,0s.3,0,.4,0Z" fill="#ffffff"/>
  <path d="M31.7,51.1c-.1-.1-.2-.3-.4-.4-2.2-1.9-6.3-.8-6.7,2.2s3.9,6.2,7.1,3.7v3.9s-.1.1-.2.2H2.9s-.2-.2-.2-.2v-.2c.1,0,10.6-7.6,10.6-7.6v4.8h.1c0,.1,4.6.1,4.6.1.2,0,.9-.4,1.1-.5.7-.6.8-1.7.4-2.5s-1-.9-1-1c0-.1.5-.3.6-.5,1-1.1.4-3-1.1-3.2s-.6,0-.9,0l14.1-10.4h.2c0,0,.2.1.2.1v11.5ZM23.1,49.8h-1.7v7.6h.1c0,.1,1.5.1,1.5.1v-7.7Z" fill="#ffffff"/>
  <path d="M61.5,49.8l2.1,5.4,2.1-5.4h1.9v7.7h-1.3v-5.8l-2.4,5.8c-.2,0-.5,0-.6-.1l-2.4-5.7v5.6s.1,0,0,.2h-1.3v-7.7h2Z" fill="#ffffff"/>
  <polygon points="51.4 49.8 53.6 55.2 55.7 49.8 57.6 49.8 57.6 57.5 56.2 57.5 56.2 51.7 53.9 57.5 53.3 57.5 50.9 51.6 50.9 57.5 49.5 57.5 49.5 49.8 51.4 49.8" fill="#ffffff"/>
  <path d="M80.9,49.8c1.9.3,2.6,3,1.1,4.2s-.5.3-.8.4,0,.2,0,.4c.3.7,1.3,1.7,1.5,2.4s0,.2,0,.3h-1.4l-1.8-2.9h-1.2c0,0-.1.1-.1.2-.1.7,0,1.7,0,2.4s0,.2-.1.3h-1.2v-7.7h4ZM78.3,53.4h2.2c0,0,.6-.3.7-.4.3-.4.3-1.1,0-1.5s-.6-.5-.7-.5h-2.2v2.4Z" fill="#ffffff"/>
  <path d="M43.9,49.7c4.7-.5,5.9,6.9,1.4,7.9s-6.5-7.4-1.4-7.9ZM44.2,50.9c-3.1.3-3,5.6.2,5.6s3.2-5.9-.2-5.6Z" fill="#ffffff"/>
  <path d="M74.9,49.8c0,.4.1.9-.1,1.2h-3.8v2h3.7c.2.3,0,.8.1,1.2h-3.9v2.1h.1c0,.1,3.8.1,3.8.1,0,.4.1.9-.1,1.2h-5.2v-7.7h5.3Z" fill="#ffffff"/>
  <path d="M39.7,51.5l-1,.5c-.9-1.4-2.7-1.4-3.8-.2-2,2.4,1,6.2,3.4,4.1s.4-.5.4-.5c.2-.1,1,.4,1.2.6-1.6,2.5-5.4,2.1-6.5-.6s1.6-6.9,5-5.4,1.7,1.1,1.5,1.5Z" fill="#ffffff"/>
  <path d="M90.6,51.5l-1,.5c-2-2.6-5.3-.2-4.3,2.7s3.1,2.4,4.3.7l1.1.6c-1.4,2.5-5.2,2.2-6.4-.3s1.5-7.3,5-5.6,1.6,1.1,1.4,1.5Z" fill="#ffffff"/>
  <path d="M31.7,51.6v1.7h-3.4v1.3h.1c0,.1,1.8.1,1.8.1.3.7.2,1-.5,1.3-1.4.6-2.9,0-3.3-1.5-.8-2.7,2.3-4.6,4.2-2.4l1.1-.5Z" fill="#ffffff"/>
  <path d="M15.1,54.3h2.2c.7,0,1.1,1.1.6,1.6s-.5.2-.6.2h-2c-.3,0-.2-1.5-.1-1.8Z" fill="#ffffff"/>
  <path d="M15.1,52.9c0,0,0-.2,0-.2v-1.3h.1c0-.1,2.2-.1,2.2-.1.3,0,.7.5.7.8s-.4.8-.7.8h-2.2Z" fill="#ffffff"/>
</svg>