<?xml version="1.0" encoding="UTF-8"?>
<svg id="Layer_1" xmlns="http://www.w3.org/2000/svg" version="1.1" viewBox="0 0 100 100">
  <!-- Generator: Adobe Illustrator 29.1.0, SVG Export Plug-In . SVG Version: 2.1.0 Build 142)  -->
  <defs>
    <style>
      .st0 {
        fill: #fd3838;
      }

      .st1 {
        fill: #8951fc;
      }

      .st2 {
        fill: #04b5fd;
      }

      .st3 {
        fill: #25cb73;
      }

      .st4 {
        fill: #fd7237;
      }
    </style>
  </defs>
  <path class="st0" d="M50.4,9.5c-.2.5-.3,1-.3,1.5-.4,8.1,0,17.1,0,25.3,0,0,0,.2,0,.3-5,.4-10.9-.5-15.8,0-9-1.9-14.3-11.5-9.9-19.9s16.8-7.2,26-7.2Z"/>
  <path class="st1" d="M34.3,36.6c4.9-.5,10.8.4,15.8,0,0,3.3.3,6.7.3,9.9s0,5.1,0,7.6-.3,6.4-.3,9.6c-5,.4-10.6-.5-15.5,0-8.5-1.7-13.7-9.6-10.9-18.1s6.2-8.5,10.6-9Z"/>
  <path class="st4" d="M64.5,36.3c-.8,0-1.7,0-2.5,0-3.9.2-8,.7-11.9,0,0-8.2-.5-17.2,0-25.3s.1-1,.3-1.5c4.7,0,10.2-.4,14.8,0,15.3,1.2,16.7,25.5-.7,26.8Z"/>
  <path class="st3" d="M34.6,63.7c4.9-.5,10.5.4,15.5,0,0,10.2,2.1,25.9-12.3,27.1s-19.6-25.5-3.2-27.1Z"/>
  <path class="st2" d="M64.5,36.3c5,1.1,9.6,3.7,11.5,8.7,5.9,15.3-14.7,25.7-23.8,12.5l-1.9-3.4c0-2.5,0-5.1,0-7.6,1.5-5,5.4-8.7,10.6-9.6s1.1.4,1-.6c.8,0,1.7,0,2.5,0Z"/>
</svg>