<?xml version="1.0" encoding="UTF-8"?>
<svg id="Layer_1" xmlns="http://www.w3.org/2000/svg" version="1.1" viewBox="0 0 100 100">
  <!-- Generator: Adobe Illustrator 29.1.0, SVG Export Plug-In . SVG Version: 2.1.0 Build 142)  -->
  <defs>
    <style>
      .st0 {
        fill: #0241bc;
      }

      .st1 {
        fill: #fee700;
      }
    </style>
  </defs>
  <path class="st1" d="M28.8,12.6c13.7-1,28.4.6,42.2,0,9.8.6,16,6.8,16.6,16.5.8,13.6-.6,28,0,41.7-.6,9.8-6.7,16.1-16.6,16.7-13.7-.6-28.1.8-41.7,0-9.9-.6-16.2-6.8-16.7-16.7.6-13.6-.8-27.9,0-41.5s6.5-16,16.3-16.7ZM41.9,72.8h13.4c.6,0,1.8-11,2.4-12.1,2.3-.3,6.3.7,8-1s2.7-6.6,1.4-8.2-1-.8-1.1-.8h-6.6c.9-5.1,1.5-12.6,8-13.4s6.8.3,7.2-1.6-.5-5.8-1.5-7-3.2-1.6-4.7-1.6c-9.2,0-17.1,4.9-20.4,13.6s-1.5,6.6-2.3,9.9c-2.5.3-5,.1-7.5.2-3.8.2-7.6.3-11.4.7s-2.6.1-2,1l7.6,1.2c1.4,2.5-1.4,1.5-2.8,2s-.5,0-.4.4c.2.8,3.5.5,4.1.9s.3.9.2,1.1c-.1.2-.6.3-.9.4-3.9.4-8.3,0-12.1.5s-.7.2-.6.9l24,.7-2.1,12.1Z"/>
  <path class="st0" d="M41.9,72.8l2.1-12.1-24-.7c0-.7,0-.8.6-.9,3.8-.5,8.2-.1,12.1-.5s.7-.1.9-.4,0-1-.2-1.1c-.6-.4-3.9-.2-4.1-.9,0-.3.2-.3.4-.4,1.4-.5,4.2.6,2.8-2l-7.6-1.2c-.6-.9,1.4-1,2-1,3.8-.4,7.6-.5,11.4-.7s5,0,7.5-.2c.8-3.3,1.1-6.7,2.3-9.9,3.3-8.7,11.1-13.6,20.4-13.6s3.8.3,4.7,1.6,1.8,5.5,1.5,7-5.7,1.4-7.2,1.6c-6.5.9-7.1,8.4-8,13.4h6.6c.1,0,1,.6,1.1.8,1.3,1.6,0,6.9-1.4,8.2s-5.8.7-8,1c-.6,1-1.8,12.1-2.4,12.1h-13.4Z"/>
</svg>