<?xml version="1.0" encoding="UTF-8"?>
<svg id="Layer_1" xmlns="http://www.w3.org/2000/svg" version="1.1" viewBox="0 0 100 100">
  <!-- Generator: Adobe Illustrator 29.1.0, SVG Export Plug-In . SVG Version: 2.1.0 Build 142)  -->
  <defs>
    <style>
      .st0 {
        fill: #4cb6e3;
      }

      .st1 {
        fill: #5e9448;
      }

      .st2 {
        fill: #3085cc;
      }

      .st3 {
        fill: #fbb230;
      }

      .st4 {
        fill: #020202;
      }

      .st5 {
        fill: #86bf5d;
      }

      .st6 {
        fill: #f05143;
      }

      .st7 {
        fill: #c5c5c3;
      }

      .st8 {
        fill: #48586f;
      }

      .st9 {
        fill: #905539;
      }

      .st10 {
        fill: #4d5e78;
      }

      .st11 {
        fill: #348ed8;
      }

      .st12 {
        fill: #d5d5d3;
      }

      .st13 {
        fill: #dddddb;
      }
    </style>
  </defs>
  <path d="M85.6,25.4c.4-.1.8-.2,1.2-.3l.2,1.1v45.3c0,2.4-2.9,5.6-5.3,5.6h-23.6l2.6,7.4h2.9v2.5h-27.1v-2.5h2.9l2.6-7.4h-23.6c-2.4,0-5.3-3.2-5.3-5.6V26.2c.3-3.8,3.7-6.2,7.4-5.8-.4-3.6,1.8-6.9,5.5-7.4h47.9s1.1.1,1.1.1c0,.4-.2.8-.3,1.2s-.1.9-.3,1c-.4.1-.8,0-1.2,0-15.6.5-31.2-.3-46.7,0-1.8.1-3.3,1.6-3.5,3.5-.2,14,.3,28.1,0,42.1,0,.4,0,.8,0,1.2-.4,0-.8,0-1.2,0s-.8,0-1.2,0V22.9c-1.7-.1-3.2.1-4.2,1.6s-.7,1.2-.7,1.4v38.9c2.1,0,4.1,0,6.2,0,18.9,0,37.8,0,56.7,0s2.5,0,3.7,0,1.6,0,2.5,0V26.1c0,0-.2-.2-.2-.4.4,0,.8-.2,1.2-.3ZM84.5,67.3H15.5v4.4c0,1.2,2.1,3.1,3.3,3h62.1c1.3.2,3.6-1.8,3.6-3v-4.4ZM44.3,78.3c-.8,2-1.7,4.1-2.3,6.2h16c-.6-2.1-1.5-4.1-2.3-6.2s-.2-1.1-.3-1.2h-10.7c-.2,0-.3,1-.4,1.2Z"/>
  <path class="st4" d="M83.9,22.7c-.6.8-1.3,1.6-1.8,2.5-1.2,1.7-2.6,3.4-3.8,5.1s-3.2,4.4-4.9,6.5-5.1,5.4-8,7.5-2.8,1.9-4.2,2.8c-1,4.1-2.1,7.8-6.3,9.6s-9.3,1-12,.7-1.1-.2-1.3-.9c-.2-1,.7-1.6,1.2-2.4,1.1-1.9.6-3.3.7-5.3.2-3.4,2-6.4,5.1-7.9s3.8-1.2,4.4-1.8,1.9-3,2.6-3.9c3.1-4.4,6.7-7.6,10.9-10.9s7.3-5.5,10.9-8.2,5.3-4.5,8.2-2.2.2,6.3-1.6,8.8ZM82.6,15.5c-.2,0-.5.2-.7.4-8.1,6.5-18,11.6-24,20.3v.3c.1,0,5.7,5.5,5.7,5.5.1,0,.2,0,.3,0,.3,0,2.8-2.1,3.2-2.5,6.7-6,11.3-14.5,17-21.5,1-1.1,0-2.9-1.5-2.6ZM56.2,38.5c-.3.5-1.1,1.2-.7,1.8l4.3,4.3c.4.3,2-.6,1.5-1.1l-5.2-5ZM56.3,52.3c.7-.5,1-1.4,1.3-2.2s.8-2.7.8-3.2,0-.3-.1-.4c-.9-.6-4.2-4.6-4.9-4.8s-4,1.3-4.4,1.7c-.6.5.2.6.7,1,1.5,1.4,1.2,1.9,1.6,3.7s1.7,1.3,2.8,1.8,1.9,1.4,2.2,2.5ZM45.1,54.9h6.9c.2,0,2-.6,2.2-.8.4-.6-.3-1.7-.8-2-1-.6-2.2-.4-3.3-1.5s-1-2.1-1.3-3.5-1.7-1.9-2.2-1.2-.6,1.6-.7,2.1c-.2,1.6.2,3-.1,4.7s-.5,1.4-.7,2.1Z"/>
  <path class="st10" d="M85.6,25.4c-.4.1-.8.2-1.2.3,0,.2.2.3.2.4v38.7c-.8,0-1.6,0-2.5,0V25.2c.6-.8,1.3-1.7,1.8-2.5.9.6,1.4,1.7,1.7,2.6Z"/>
  <path class="st2" d="M77.3,16.1c-3.7,2.6-7.4,5.4-10.9,8.2-.4-.3-1.2-.2-1.7-.2l8.5-8.6c.4,0,.8,0,1.2,0,.2-.1.2-.8.3-1,1,.2,2,.8,2.6,1.7Z"/>
  <path class="st12" d="M84.5,67.3v4.4c0,1.2-2.3,3.2-3.6,3H18.8c-1.2,0-3.3-1.9-3.3-3v-4.4h69Z"/>
  <path class="st11" d="M73.1,15.5l-8.5,8.6c-.8,0-1.5,0-2.3,0,0-.4,0-.8,0-1.2H26.1c-.3.2-.6.4-.7.8v37.4h-2.5c.3-14-.2-28.1,0-42.1.1-1.8,1.6-3.3,3.5-3.5,15.6-.3,31.2.5,46.7,0ZM29.1,18h-2.5v2.5h2.5v-2.5ZM34,18h-2.5v2.5h2.5v-2.5ZM38.9,18h-2.5v2.5h2.5v-2.5Z"/>
  <path class="st2" d="M78.3,34c-.2,0-1.2,0-1.2,0v28.2c.4,0,.8,0,1.2,0v2.5c-18.9,0-37.8,0-56.7,0v-2.5c.4,0,.8,0,1.2,0,0-.4,0-.8,0-1.2h2.5c0,.5.3,1,.8,1.2h47.2c.4.2,1.3-.4,1.3-.8v-20.1c0,0-1,0-1.2,0,0-1.5.2-3.1-.2-4.6,1.8-2.1,3.3-4.3,4.9-6.5.4,1.1,0,2.5.2,3.7Z"/>
  <path class="st10" d="M21.7,64.8c-2.1,0-4.1,0-6.2,0V25.9c0-.2.5-1.2.7-1.4,1-1.4,2.6-1.7,4.2-1.6v39.4c.4,0,.8,0,1.2,0v2.5Z"/>
  <path class="st8" d="M82,64.8c-1.2,0-2.5,0-3.7,0v-2.5c.2,0,1.2,0,1.2,0v-28.2c-.4,0-.8,0-1.2,0,0-1.2.2-2.5-.2-3.7,1.3-1.7,2.6-3.4,3.8-5.1v39.6Z"/>
  <path class="st12" d="M55.7,78.3c.8,2,1.7,4,2.3,6.2h-16c.6-2.1,1.5-4.1,2.3-6.2h11.4Z"/>
  <path class="st7" d="M44.3,78.3c0-.2.2-1.2.4-1.2h10.7c0,0,.3,1.1.3,1.2h-11.4Z"/>
  <path class="st0" d="M64.6,24.1c.5,0,1.3-.1,1.7.2-4.2,3.3-7.8,6.5-10.9,10.9s-2,3.4-2.6,3.9-3.4,1.3-4.4,1.8c-3,1.6-4.9,4.5-5.1,7.9l-2-1.2c.2-.3.7-.8.5-1.2s-3.3-2.3-3.6-2.4-.5-.2-.8-.1c-3.3,1.9-6.4,4.2-9.6,6.3v-24.8h34.5c0-.4,0-.8,0-1.2.8,0,1.5,0,2.3,0ZM39.8,27.9c-8.5,1.1-7.2,14.5,1.8,13.5s7.4-14.7-1.8-13.5Z"/>
  <path class="st1" d="M67.1,46.3c-.2.2-.8.8-.5,1.1l5.6,5.6v6.9H27.8v-6.7l9.7-6.5c.6-.2,2.4,1.7,3,1.8s.6-.6.8-.9l2,1.2c-.1,2.1.4,3.4-.7,5.3s-1.5,1.4-1.2,2.4.7.8,1.3.9c2.8.3,9.6.3,12-.7,4.2-1.7,5.3-5.5,6.3-9.6,1.4-.9,2.9-1.8,4.2-2.8.6.6,1.5,1.2,1.8,2Z"/>
  <path class="st9" d="M82.6,15.5c1.4-.3,2.5,1.4,1.5,2.6-5.7,7-10.3,15.5-17,21.5s-2.9,2.5-3.2,2.5-.2,0-.3,0l-5.6-5.5v-.3c5.9-8.7,15.8-13.8,23.9-20.3.2-.1.5-.3.7-.4ZM66.8,30c-.1.4,1.3,1.9,1.5,2s1.8-1.3,1.9-1.5c0-.3-1.1-1.5-1.3-1.9l-2,1.4ZM61.3,36.1c0,.1,1.5,1.1,1.7,1.2.4-.5,3.5-3.5,3.5-3.7-.5-.5-1.1-1.3-1.7-1.6-.3,0-3.4,3.4-3.5,3.8s0,.2,0,.3Z"/>
  <path class="st13" d="M56.3,52.3c-.3-1.1-1.2-2-2.2-2.5s-2.5-.3-2.8-1.8,0-2.3-1.6-3.7-1.3-.5-.7-1,4-1.8,4.4-1.7c.7.2,4,4.2,4.9,4.8.1.1.1.3.1.4,0,.5-.6,2.6-.8,3.2s-.6,1.7-1.3,2.2Z"/>
  <path class="st5" d="M45.1,54.9c.2-.7.6-1.4.7-2.1.3-1.7-.1-3.1.1-4.7s.4-1.7.7-2.1c.4-.7,2,.3,2.2,1.2.3,1.4,0,2.3,1.3,3.5s2.3.9,3.3,1.5,1.1,1.4.8,2-1.9.8-2.2.8h-6.9Z"/>
  <path class="st0" d="M73.4,41.4h-1.2v8l-3.9-3.8h-.2c-.2.3-.9.6-1,.7-.3-.8-1.2-1.4-1.8-2,3-2.2,5.6-4.8,8-7.5.4,1.5,0,3.1.2,4.6Z"/>
  <path class="st3" d="M56.2,38.5l5.2,5c.4.4-1.1,1.3-1.5,1.1l-4.3-4.3c-.4-.6.4-1.3.7-1.8Z"/>
  <path d="M25.4,61.1V23.7c.2-.3.4-.6.8-.7h36.2c0,.3,0,.8,0,1.2s0,.8,0,1.2H27.8s0,24.8,0,24.8c3.2-2.1,6.3-4.4,9.6-6.3.3,0,.5,0,.8.1s3.5,2.2,3.6,2.4c.3.3-.2.8-.5,1.2s-.5.9-.8.9c-.6,0-2.4-1.9-3-1.8l-9.7,6.5v6.7h44.4v-6.9l-5.6-5.6c-.2-.3.3-.8.5-1.1s.8-.4,1-.8h.2c0,0,3.9,3.8,3.9,3.8v-8h1.2c.2,0,1.2,0,1.2,0v20.1c0,.4-.9,1-1.3.9H26.1c-.5-.3-.8-.7-.8-1.2Z"/>
  <rect x="26.6" y="18" width="2.5" height="2.5"/>
  <rect x="31.5" y="18" width="2.5" height="2.5"/>
  <rect x="36.4" y="18" width="2.5" height="2.5"/>
  <path d="M78.3,34c.4,0,.8,0,1.2,0v28.2c0,.2-1,0-1.2,0-.4,0-.8,0-1.2,0v-28.2c0-.2,1,0,1.2,0Z"/>
  <path class="st4" d="M39.8,27.9c9.2-1.2,10.5,12.5,1.8,13.5s-10.3-12.4-1.8-13.5ZM40.1,30.3c-5.4.7-4.6,9.2,1.2,8.6s4.8-9.4-1.2-8.6Z"/>
  <path class="st4" d="M61.3,36.1c0-.1,0-.2,0-.3,0-.4,3.2-3.8,3.5-3.8.7.4,1.2,1.1,1.7,1.6,0,.3-3.1,3.2-3.5,3.7-.3-.2-1.7-1.1-1.7-1.2Z"/>
  <path class="st4" d="M66.8,30l2-1.4c.2.4,1.4,1.6,1.3,1.9s-1.7,1.5-1.9,1.5-1.6-1.6-1.5-2Z"/>
  <path class="st6" d="M40.1,30.3c6-.8,6.7,8,1.2,8.6s-6.5-7.9-1.2-8.6Z"/>
</svg>