<?xml version="1.0" encoding="UTF-8"?>
<svg id="Layer_1" xmlns="http://www.w3.org/2000/svg" version="1.1" viewBox="0 0 100 100">
  <!-- Generator: Adobe Illustrator 29.1.0, SVG Export Plug-In . SVG Version: 2.1.0 Build 142)  -->
  <defs>
    <style>
      .st0 {
        fill: #050506;
      }

      .st1 {
        fill: #fcfcfc;
      }

      .st2 {
        fill: #73cef3;
      }

      .st3 {
        fill: #f3ce1a;
      }

      .st4 {
        fill: #e8f8fd;
      }

      .st5 {
        fill: #deecfb;
      }

      .st6 {
        fill: #9cd26f;
      }

      .st7 {
        fill: #c1d7e8;
      }

      .st8 {
        fill: #030303;
      }

      .st9 {
        fill: #82a2bd;
      }

      .st10 {
        fill: #030201;
      }

      .st11 {
        fill: #fae559;
      }

      .st12 {
        fill: #fc6868;
      }

      .st13 {
        fill: #040403;
      }

      .st14 {
        fill: #030202;
      }
    </style>
  </defs>
  <path class="st13" d="M51.3,9.4c.3-2,2.4-3.3,4.3-3.4,9.4-.7,19.7.6,29.1,0,2.4.3,4,1.9,4.2,4.3.5,6.2-.4,13.1,0,19.3,0,1.7-1,2.6-1.7,3.8v19.3s.6.8.6.8c1.5-2.6,5.5-2.3,7.2.1s.8,3.4-.1,5.3c-2.1,4.1-5,8-7,12.2-.5,6.3.6,13.4,0,19.6s-1.1,2.8-2.6,3.3c-11.5.3-23,0-34.5.1-1.1-.1-2.1-.6-2.7-1.5s-.5-1.1-.5-1.1v-5.6h-13.4c-12,19.4-39.7,1-26.2-17.5.3-16.7,0-33.4.1-50.1,0-1.5,2.4-4.1,3.8-4.1h39.5c.2-1.5-.2-3.5,0-4.9ZM59.8,32.2c.2.9-.1,2.3,0,3.2,1.3-.8,3.5-4.1,4.9-4.4h20.1c.9,0,1.2-1,1.2-1.8-.4-6,.5-12.7,0-18.6s-.4-1.6-1.6-1.7h-28.4c-.7,0-1.4.2-1.7.9v20.3c.4,1.9,5-.2,5.4,2.1ZM51.3,17.2H12.3c-.3,0-1.4,1-1.4,1.4v8h20c1-1.3,1.7-2.9,2.9-4h17.4v-5.3ZM51.3,25.5h-15.9c-1,.8-2.2,4-3.5,4H10.9v35.9c1.1-.4,2-1.1,3-1.5,12.5-5.2,25.2,6.4,21.3,19.2h12.2v-37.4c0-.8,1.7-2.5,2.7-2.5,9.2.1,18.5-.2,27.7.2l6.5,6.5v-15.8h-18.7c-1.5.8-5.9,6.4-7,6.6-2.8.5-1.3-4.9-1.8-6.4-.2-.3-1.8,0-2.4-.2-1-.2-3.1-2.1-3.1-3.2v-5.2ZM75.5,46.1h-25.1v45s.3.3.3.3h33.7s.5-.4.5-.5v-14.1c-.3,0-.4,0-.5.3-.8,1.1-1.3,2.8-2.2,3.8-1.7,1.9-4.9,3.5-6.6,5.5-.6.6-2,.3-2.3-.5-.6-1.3,1.3-8,1.4-9.8l10.3-17.7v-2.8c0-.2-.5-.3-.6-.3-1.9-.2-5.8.5-7.3-.5s-1.5-1.5-1.5-2v-6.9ZM82.7,52.5l-4.2-4.2v4.2h4.2ZM91.5,59.1c.4-1.2,2.1-2.7.9-3.9s-3.1,1.1-3.6,2.4c0,.3,2.5,1.7,2.7,1.6ZM89.8,61.5c0-.1-2.3-1.3-2.5-1.3-.3,0-.6.7-.6.8,0,.2,2.2,1.5,2.5,1.5.4,0,.7-.9.6-1.1ZM87.8,65c-.6,0-2.3-1.6-2.7-1.3-.5,1.7-7.4,12-7,12.7s2.6,1.7,2.7,1l7-12.4ZM18.6,65.6c-10.1,1-14.9,13.2-8.4,21s17.3,5.8,21.4-2.4c4.7-9.2-2.8-19.7-13-18.7ZM76.6,81.6l2-1.6-1.7-.8-.4,2.4Z"/>
  <path class="st4" d="M51.3,25.5v5.2c0,1,2.1,3,3.1,3.2s2.1-.1,2.4.2c.5,1.5-1,7,1.8,6.4s5.5-5.8,7-6.6h18.7v15.8l-6.5-6.5c-9.1-.4-18.5,0-27.7-.2-.9,0-2.7,1.7-2.7,2.5v37.4h-12.2c3.9-12.8-8.8-24.4-21.3-19.2-1,.4-2,1.1-3,1.5V29.5h20.9c1.3,0,2.5-3.2,3.5-4h15.9ZM16.8,34.3c-.8.2-1,.7-1.1,1.5-.6,6.6.5,14,0,20.6,0,.7.3,1.2.9,1.5h24.9c.6-.2.9-1.1.9-1.7-.5-6.5.6-13.9,0-20.3s-.5-1.8-1.6-1.7h-24.1Z"/>
  <path class="st5" d="M75.5,46.1v6.9c0,.5,1,1.7,1.5,2,1.5,1,5.4.2,7.3.5s.6,0,.6.3v2.8l-10.3,17.7c-.1,1.8-2,8.5-1.4,9.8s1.7,1,2.3.5c1.8-2,4.9-3.6,6.6-5.5s1.4-2.8,2.2-3.8.2-.4.5-.3v14.1s-.4.5-.5.5h-33.7s-.3-.3-.3-.3v-45h25.1ZM62,54.4c-.2-.2-.8-.4-1.1-.4-1.1-.1-4.6-.2-5.7,0-1.7.3-1.8,2.7-.2,2.9s5.2.2,6.2,0,1.6-1.7.8-2.5ZM54.8,60.1c-1.7.7-1.1,2.8.7,2.9h22.7c1.9,0,2.3-2.7.4-2.9h-23.7ZM54.9,66c-1.5.3-1.5,2.5,0,2.9s4.2.1,4.9,0c1.6-.2,1.6-2.6.2-2.9s-4.4-.1-5.1,0ZM64.4,66c-1.5.4-1.4,2.7.2,2.9,3.5-.4,8.1.5,11.4,0s1.6-2.7,0-2.9h-11.6ZM55.1,71.9c-2.1.5-1.7,2.9.3,3.1,4.6-.3,9.8.5,14.4,0,2.6-.3,2.6-2.8.5-3.1h-15.2ZM54.8,77.9c-1.3.3-1.3,2.5.2,2.9s4.2.1,4.9,0c1.6-.2,1.6-2.5.3-2.9s-4.9-.1-5.5,0ZM64.2,77.9c-1.3.6-1.2,2.5.2,2.8s5,.2,6,0c1.9-.3,1.8-2.6.3-2.9s-4.7.2-6.6,0ZM54.1,86.3c.2.2.7.4,1,.4,4.7.6,10.5-.5,15.3,0,1.8-.2,2-2.7-.2-2.9-4.6-.5-10.2.4-14.9,0-1.3,0-2,1.6-1.1,2.5Z"/>
  <path class="st3" d="M59.8,32.2c-.5-2.3-5.1-.2-5.5-2.1V9.8c.3-.7,1-.9,1.7-.9h28.4c1.1.1,1.5.7,1.6,1.7.5,5.9-.4,12.6,0,18.6,0,.7-.3,1.7-1.2,1.8h-20.1c-1.4.3-3.6,3.6-4.9,4.4-.1-.9.2-2.4,0-3.2ZM70.1,28.5c.3-1.2-.2-3.2,0-4.5,1.7,0,5.3.4,6.7,1.5s-.2,2,1.1,2.2,1.8-.6,1.9-1.7c.3-3.3.3-10.3,0-13.6s-.3-1.7-1.4-1.8c-2.2-.2-1.2,1.6-1.6,2.2s-4.7,1.4-5.6,1.5c-2.5.2-6.7-.5-9,0s-1.8,1.1-2,2.1-.2,4,0,5.1.4,1.5,1,1.9,1.8.6,2,.8c.9,1.1,0,5.1,2.2,5.3s4.2.3,4.5-1Z"/>
  <path class="st12" d="M18.6,65.6c10.2-1,17.6,9.5,13,18.7-4.2,8.2-15.5,9.4-21.4,2.4s-1.6-20,8.4-21ZM14.9,70.9c-.6.2-.8,1-.9,1.5-.4,3.9.3,8.2,0,12.2,0,1.1,1.2,1.7,2.2,1.2,3.2-1.8,6.6-3.3,9.8-5.2s4-2,1.6-3.7-7.8-3.7-11.2-6c-.4-.2-1-.2-1.5-.1Z"/>
  <path class="st7" d="M51.3,17.2v5.3h-17.4c-1.2,1.2-1.9,2.7-2.9,4H10.9v-8c0-.4,1.1-1.4,1.4-1.4h39ZM15.8,20.7c-1.5,1.3.8,3.6,2.2,2.1s-.7-3.4-2.2-2.1ZM21.4,20.3c-1.8.4-1.3,3.6,1,2.8s.8-3.2-1-2.8ZM25.6,20.7c-1.5,1.3.8,3.6,2.2,2.1s-.7-3.4-2.2-2.1Z"/>
  <path class="st11" d="M87.8,65l-7,12.4c-.2.6-2.7-.9-2.7-1-.4-.6,6.5-11,7-12.7.4-.3,2.1,1.3,2.7,1.3Z"/>
  <path class="st12" d="M91.5,59.1c-.2.1-2.7-1.3-2.7-1.6.5-1.3,2-4.1,3.6-2.4s-.5,2.7-.9,3.9Z"/>
  <polygon class="st7" points="82.7 52.5 78.4 52.5 78.4 48.3 82.7 52.5"/>
  <path class="st9" d="M89.8,61.5c.1.2-.2,1.1-.6,1.1s-2.5-1.4-2.5-1.5.3-.9.6-.8,2.4,1.2,2.5,1.3Z"/>
  <polygon class="st7" points="76.6 81.6 76.9 79.2 78.6 80 76.6 81.6"/>
  <path class="st8" d="M16.8,34.3h24.1c1.1,0,1.5.7,1.6,1.7.6,6.4-.5,13.8,0,20.3,0,.6-.3,1.5-.9,1.7h-24.9c-.6-.3-1-.8-.9-1.5.5-6.6-.6-14.1,0-20.6s.3-1.3,1.1-1.5ZM39.5,37.2h-20.8v15.5c1.8-1.4,3-3.3,4.6-4.9s1.2-1.3,2.4-.9,1.9,2.1,2.3,1.9c0-.2.1-.4.3-.6,1.4-1.5,2.8-3.1,4.2-4.6s1.4-1.3,2.5-.6,3.2,3.2,4.1,4.2.2.4.5.3v-10.3ZM39.5,55.1v-3.2c-.9-.6-4.9-5.4-5.4-5.4-1.6,1.2-3,3-4.3,4.5l3.8,4.1h6ZM29.6,55.1l-4.5-4.6c-.3,0-3.9,3.9-4.3,4.6h8.8Z"/>
  <path class="st0" d="M54.8,60.1h23.7c1.9.2,1.5,3-.4,2.9h-22.7c-1.8,0-2.4-2.2-.7-2.9Z"/>
  <path class="st0" d="M55.1,71.9h15.2c2,.3,2,2.8-.5,3.1-4.5.5-9.8-.3-14.4,0-2.1-.2-2.4-2.5-.3-3.1Z"/>
  <path class="st13" d="M54.1,86.3c-.8-1-.1-2.5,1.1-2.5,4.7.4,10.3-.5,14.9,0s2,2.7.2,2.9c-4.8-.4-10.7.6-15.3,0s-.8-.2-1-.4Z"/>
  <path class="st14" d="M64.4,66h11.6c1.6.2,1.6,2.6,0,2.9-3.3.5-7.9-.4-11.4,0-1.6-.2-1.7-2.5-.2-2.9Z"/>
  <path class="st0" d="M62,54.4c.8.8.4,2.3-.8,2.5s-5.2.2-6.2,0c-1.6-.3-1.5-2.7.2-2.9s4.6-.1,5.7,0,.9.2,1.1.4Z"/>
  <path class="st13" d="M64.2,77.9c1.9.2,4.8-.4,6.6,0s1.6,2.6-.3,2.9-5.1.2-6,0c-1.4-.3-1.5-2.2-.2-2.8Z"/>
  <path class="st0" d="M54.8,77.9c.5-.1,5-.1,5.5,0,1.3.4,1.2,2.7-.3,2.9s-4.2.1-4.9,0c-1.5-.3-1.5-2.6-.2-2.9Z"/>
  <path class="st8" d="M54.9,66c.6-.1,4.4-.1,5.1,0,1.4.3,1.4,2.6-.2,2.9s-4.2.1-4.9,0c-1.5-.3-1.5-2.5,0-2.9Z"/>
  <path class="st10" d="M70.1,28.5c-.3,1.3-3.4,1.1-4.5,1-2.3-.3-1.3-4.2-2.2-5.3s-1.5-.4-2-.8-1-1.2-1-1.9c-.1-1.1-.1-4.1,0-5.1s1-1.9,2-2.1c2.3-.5,6.4.1,9,0s5.2-.9,5.6-1.5-.6-2.3,1.6-2.2,1.3.8,1.4,1.8c.3,3.3.3,10.3,0,13.6s-.6,2-1.9,1.7-.9-2-1.1-2.2c-1.4-1-5-1.5-6.7-1.5-.2,1.3.3,3.3,0,4.5ZM76.9,22.3v-6.4c-2.2.9-4.5,1.2-6.8,1.3v3.8c2.3.2,4.7.4,6.8,1.4ZM67.2,17.2h-3.9v3.9h3.9v-3.9ZM67.2,24c-.3,0-.7-.3-.7.3s.2,1.4.4,1.9-.1.5.4.4v-2.6Z"/>
  <path class="st14" d="M14.9,70.9c.4-.1,1,0,1.5.1,3.3,2.2,7.9,3.7,11.2,6s-.2,2.9-1.6,3.7c-3.2,1.8-6.6,3.3-9.8,5.2-1,.5-2.1-.1-2.2-1.2.3-3.9-.4-8.3,0-12.2s.3-1.3.9-1.5ZM17,74.8v7.4l6.8-3.8-6.8-3.6Z"/>
  <path class="st0" d="M25.6,20.7c1.5-1.3,3.4.6,2.2,2.1s-3.6-.7-2.2-2.1Z"/>
  <path class="st0" d="M15.8,20.7c1.5-1.3,3.4.6,2.2,2.1s-3.6-.7-2.2-2.1Z"/>
  <path class="st0" d="M21.4,20.3c1.8-.4,2.5,2.3,1,2.8-2.3.8-2.8-2.4-1-2.8Z"/>
  <path class="st6" d="M39.5,37.2v10.3c-.4,0-.4-.1-.5-.3-.9-1-3.1-3.6-4.1-4.2s-1.7-.1-2.5.6c-1.5,1.5-2.8,3.1-4.2,4.6s-.3.3-.3.6c-.3.2-1.7-1.7-2.3-1.9-1.1-.5-1.6.1-2.4.9-1.6,1.6-2.8,3.5-4.6,4.9v-15.5h20.8ZM25.5,38.6c-4.5.8-3.7,8.4,1.6,7.5s3.7-8.4-1.6-7.5Z"/>
  <path class="st1" d="M39.5,55.1h-6l-3.8-4.1c1.4-1.5,2.7-3.3,4.3-4.5.5,0,4.6,4.9,5.4,5.4v3.2Z"/>
  <path class="st1" d="M29.6,55.1h-8.8c.4-.6,4-4.6,4.3-4.6l4.5,4.6Z"/>
  <path class="st2" d="M76.9,22.3c-2.2-1-4.5-1.2-6.8-1.4v-3.8c2.3,0,4.7-.4,6.8-1.3v6.4Z"/>
  <rect class="st12" x="63.3" y="17.2" width="3.9" height="3.9"/>
  <path class="st9" d="M67.2,24v2.6c-.5,0-.3-.1-.4-.4-.1-.5-.3-1.4-.4-1.9s.5-.2.7-.3Z"/>
  <polygon class="st1" points="17 74.8 23.8 78.4 17 82.1 17 74.8"/>
  <path class="st14" d="M25.5,38.6c5.3-.9,6.2,6.7,1.6,7.5s-6.1-6.7-1.6-7.5ZM26.2,41.3c-1.3.1-1,2.1.1,1.9s1-2.1-.1-1.9Z"/>
  <path class="st4" d="M26.2,41.3c1.2-.1,1.4,1.8.1,1.9s-1.4-1.8-.1-1.9Z"/>
</svg>