<?xml version="1.0" encoding="UTF-8"?>
<svg id="Layer_1" xmlns="http://www.w3.org/2000/svg" version="1.1" viewBox="0 0 100 100">
  <!-- Generator: Adobe Illustrator 29.1.0, SVG Export Plug-In . SVG Version: 2.1.0 Build 142)  -->
  <defs>
    <style>
      .st0 {
        fill: #fcd574;
      }

      .st1 {
        fill: #5771cc;
      }

      .st2 {
        fill: #e1f0f2;
      }

      .st3 {
        fill: #534f87;
      }

      .st4 {
        fill: #abb6f2;
      }

      .st5 {
        fill: #494578;
      }

      .st6 {
        fill: #625e95;
      }

      .st7 {
        fill: #36375b;
      }

      .st8 {
        fill: #fc516d;
      }

      .st9 {
        fill: #01d4bc;
      }

      .st10 {
        fill: #f88e73;
      }

      .st11 {
        fill: #312f3f;
      }

      .st12 {
        fill: #609efd;
      }

      .st13 {
        fill: #bacaf2;
      }

      .st14 {
        fill: #fcc797;
      }
    </style>
  </defs>
  <path class="st11" d="M68.1,6.3c3.7.5,8.1,4.7,8.1,8.5v3h9.8c.2,0,.7.8.6,1.1-.3,4.6.4,9.7,0,14.2,0,.4-.3,1.3-.8,1.3h-9.6v27.6c9.2,2.9,9.3,16,0,19-.2.4,0,3.9,0,4.8-.4,4.8-4.1,8.5-8.9,8.9H29.6c-3.5-.1-8.4-4.5-8.4-8v-7.1s-.2-.3-.3-.3h-4.3c0,0-1-.5-1.1-.6-.7-.6-1.3-1.7-1.4-2.6-.3-2.8-.2-8.8,0-11.7s.4-2.4,1.4-3.1,1-.6,1.1-.6h4.3s.3-.2.3-.3v-25.1h-2.7c-1.1,0-2.6-1.5-2.7-2.7.3-4.3-.4-9.2,0-13.5s2.9-2.9,5.2-2.9c.2-1.1.2-2,.5-3.1,1-3.6,4-5.8,7.4-6.8h39.2ZM36.5,8.2c-2.6,0-6.3-.4-8.7.5s-4.9,4.3-4.9,7.6h2.4c-.4-2.8,1.5-5.6,4.4-5.9s4.7,0,6.8,0c8.2,0,16.4,0,24.5,0s6.3-.4,8.1.4,2.9,2.4,2.9,3.8v3.2h2.2v-3.2c0-.7-.9-2.6-1.3-3.2-2.8-4.2-7.5-3.3-11.8-3.3-8.2,0-16.5,0-24.7,0ZM32.7,16.3c1,.6,1.9,1.5,2.1,2.7.6,4.1-.4,9.4,0,13.6-.2,1-.9,2-1.9,2.4s-1.1,0-2.2,1-2.2,2.3-3.5,3.3v21.2c.2.3,2.9,0,3.7.3s1.8,1.5,2,2.4c-.2,4.1.6,9.3,0,13.2s-1.1,2.3-2.1,2.7-3.8,0-3.8.4v6c0,0,.3,1.1.3,1.2.4,1,1.4,1.7,2.5,1.8h37.8c3.7-.9,2.2-4.9,2.5-7.7-1.2-.5-2.7-1.2-3.6-2-4.2-3.7-4.2-11.1,0-14.8s2.5-1.5,3.6-2.2v-27.5c-1,0-2-.2-3-.2s-.5.2-.6.2c-1.4,0-4.3.5-4.5-1.3-.5-4.4.3-9.9,0-14.4.2-1.3,2.7-.8,3.9-.9s2.8,0,4.1,0v-3.2c0-.7-1.5-2.1-2.2-2.3h-8.2c-.5,0-.9,1.9-1.2,2.5-.6,1.4-1.6,2.5-3.2,2.9-4.1-.2-8.8.5-12.9,0s-3.8-3-4.6-5.5c-2.6.2-5.7-.3-8.2,0s-2.6,1.6-2.7,3.2,0,.7.6.8c1.2.1,3.8,0,5.1,0ZM57.4,12.3h-17.6c.7,1.6.8,3.3,2.8,3.7s9.2.3,11.5,0,2.9-1.6,3.4-3.8ZM26.2,37.5c.3,0,.3-.1.5-.3.9-.7,3.3-3.7,4.1-3.9s1.7.2,2-.7v-14c-.3-.5-.9-.6-1.4-.7-2.7-.3-9.3-.3-12.1,0s-1.2.2-1.5.7c-.1,4.7-.2,9.4,0,14.1.2.3.5.5.8.5,1.8.3,5.6-.6,6.9.7s.6.9.6.9v2.5ZM83.2,19.6h-17.6l8.9,9,8.7-9ZM64,31.2l5-5.1-5-5.1v10.2ZM84.7,31.2v-10.2l-5,5.1,5,5.1ZM83.3,32.5c-.8-.7-4.4-4.8-5-5s-.3,0-.5.1c-.9.6-2.1,2.5-2.9,3s-.4.2-.7.2c-.9,0-3.2-3.3-3.8-3.3l-5.1,5h18ZM72.1,41.9c0,5.5,0,11.1,0,16.6,0,1.1,0,2.2,0,3.3.7-.3,1.4-.2,2.2,0,0-1.1,0-2.2,0-3.3,0-5.5,0-11.1,0-16.6,0-2.5,0-5,0-7.4h-2.1c0,2.5,0,5,0,7.4ZM22.9,41.9c0,5.5,0,11.1,0,16.6s0,1.5,0,2.2h2.4c0-.7,0-1.5,0-2.2,0-5.5,0-11.1,0-16.6s.1-2.3,0-2.8-.7-.4-.8-1.1c-.3-1.5.8-3-1.6-2.6,0,2.2,0,4.4,0,6.6ZM17.5,62.5c-.9.2-1.4.7-1.5,1.6-.4,3.7.3,8.2,0,11.9.2,1.3,1,1.6,2.2,1.6,3.6.3,7.6-.2,11.2,0,1-.2,1.5-.6,1.6-1.6.3-3.8-.3-8.2,0-12.1,0-1-1-1.4-1.8-1.5-2.2-.2-9.6-.3-11.7,0ZM72.4,63.5c-10.2,1-9.1,16.7,1.3,16.2,10.8-.5,9.7-17.3-1.3-16.2ZM22.9,82.3c0,2.6-.1,4.9,1.4,7.2,2.8,4.3,7.4,3.3,11.9,3.4,8.4,0,16.8,0,25.2,0s9,.9,11.7-3.4c1.4-2.1,1.3-3.8,1.2-6.3s0-1,0-1.5-.7,0-1.1,0-.7-.2-1.1-.2c0,.6,0,1.2,0,1.7,0,2.6.3,5.2-2.4,6.7s-6.1.7-8.5.7c-8.3,0-16.7,0-25,0-2.1,0-6,.3-7.7-.3-3.7-1.4-3.1-4.8-3.2-8s0-2,0-2.9h-2.4c0,1,0,2,0,2.9Z"/>
  <path class="st1" d="M30.8,56.9c.8,1,2.3,1.5,3.6,1.4,1.3,9.3,10.5,15.1,19.5,11.7,4.8-1.8,8.5-6.6,8.9-11.7,1.1.1,2.9-.3,3.6-1.2l.2,7.1c-4.2,3.7-4.2,11.1,0,14.8.2,2.7,0,5.8-3.4,6h-29.5c-3.1-.6-3.1-3.3-2.9-5.9,1-.4,1.9-1.7,2.1-2.7.5-4-.3-9.1,0-13.2-.2-.9-1.2-2.1-2-2.4v-4ZM42.1,80.2c.4.4,2.1.3,2.3-.5.4-1.2-1.4-1.5-2.2-1.1s-.4,1.3-.1,1.6ZM48.1,78.5c-1.2.3-.9,2,.8,1.9s1.5-2.4-.8-1.9ZM53.2,78.7c-1.2,1.2,1.6,2.6,2.2,1.1s-1.7-1.7-2.2-1.1Z"/>
  <path class="st1" d="M66.1,17.9c-1.2,0-3.7-.5-3.9.9.2,4.5-.6,10,0,14.4s3.1,1.3,4.5,1.3v18c-1-1.1-2.1-1.6-3.6-1.6,0-.7,0-1.3,0-2s-.5-2.2-.5-2.9c0-1.7.2-2.9,0-4.8-2.2-12.5-19.6-15.1-25.8-4.5s-1.3,3.3-1.5,3.4c-.4.3-2.8-.6-4.3.6-.1-1.5.2-3.2-.2-4.7,1.2-1,1-.5,2.2-1s1.7-1.4,1.9-2.4c-.4-4.2.6-9.5,0-13.6s-1-2.1-2.1-2.7c.4,0,.9-.4,1.5-.4,2.4,0,2.8,2.2,4.4,3.3,3.8,2.7,12.5.8,17.1,1.3,3.6-.5,4.5-4.3,7-4.6s3,.6,3.4,1.9Z"/>
  <path class="st12" d="M66.6,79c.9.8,2.5,1.5,3.6,2-.3,2.8,1.1,6.8-2.5,7.6H29.9c-1.1-.1-2.1-.8-2.5-1.8s-.3-1.2-.3-1.2v-6c0-.4,3.1-.2,3.8-.4-.2,2.6-.2,5.3,2.9,5.8h29.5c3.3-.2,3.6-3.3,3.4-6Z"/>
  <path class="st9" d="M26.2,37.5v-2.5c0,0-.5-.8-.6-.9-1.3-1.3-5.1-.4-6.9-.7s-.7-.2-.8-.5c-.2-4.7-.2-9.4,0-14.1.4-.5.9-.6,1.5-.7,2.8-.3,9.4-.3,12.1,0s1.1.2,1.4.7v14c-.4,1-1.3.6-2,.7s-3.2,3.1-4.1,3.9-.2.3-.5.3ZM24.6,22.7c-.2-.2.5-2-1.1-1.7s-.6,1.4-.9,1.7-2.1-.4-2.4.7,1,1.4,1.9,1.3c0,0-.4,2.1-.5,2.2-.5.4-2.4-.5-2.1,1.2s1.4.5,1.6.6-.3,1.6.6,1.9,1.1-1.3,1.4-1.8,2.9-.2,3-.1-.4,1.7.6,1.9c1.5.2,1-1.5,1.4-1.8s2,.4,2.4-.6-.9-1.4-1.8-1.2c0-.3.3-2.2.4-2.2.2-.2,2.1.4,2.2-.8s-.9-1.2-1.7-1.1c.3-.8.3-1.8-.8-1.7s-.9,1.7-1.2,1.7c-.4,0-2.7,0-2.8,0Z"/>
  <path class="st12" d="M32.7,16.3c-1.3,0-3.9.2-5.1,0s-.6-.2-.6-.8c0-1.6,1-3,2.7-3.2,2.5-.3,5.6.2,8.2,0,.8,2.5,1.5,5.2,4.6,5.5s8.8-.2,12.9,0c1.5-.4,2.5-1.5,3.2-2.9s.7-2.5,1.2-2.6h8.2c.7.2,2.2,1.6,2.2,2.3v3.2c-1.4,0-2.8,0-4.1,0-.3-1.3-2.1-2-3.4-1.9-2.4.3-3.4,4.1-7,4.6-4.6-.5-13.3,1.4-17.1-1.3s-2.1-3.3-4.4-3.3-1.1.3-1.5.4Z"/>
  <path class="st8" d="M72.4,63.5c11.1-1.1,12.1,15.6,1.3,16.2-10.4.5-11.5-15.1-1.3-16.2ZM71.4,66.6c-.5.1-1.1.7-1.2,1.3-.2,1.3-.2,6.2,0,7.6s.9,1.6,1.8,1.5,5.6-4,5.8-4.5.2-.9,0-1.4-3.4-2.9-4.1-3.5-1.3-1.2-2.3-.9Z"/>
  <path class="st6" d="M17.5,62.5c2.1-.3,9.5-.3,11.7,0s1.8.5,1.8,1.5c-.3,3.9.4,8.3,0,12.1s-.6,1.4-1.6,1.6c-3.7-.2-7.6.3-11.2,0s-2-.3-2.2-1.6c.3-3.8-.4-8.3,0-11.9s.6-1.4,1.5-1.6ZM27.8,64.2c-.9.9.7,2.4,1.6,1.3s-.8-2.1-1.6-1.3ZM23.4,65c-6.5.2-6.1,10,.1,10s6.5-10.2-.1-10Z"/>
  <path class="st12" d="M66.6,34.4c0,0,.3-.2.6-.2,1,0,2,0,3,.2v27.5c-1.1.7-2.6,1.3-3.6,2.2l-.2-7.1c1-1.3,1.1-3.3.2-4.7v-18Z"/>
  <polygon class="st2" points="83.2 19.6 74.4 28.6 65.5 19.6 83.2 19.6"/>
  <path class="st12" d="M30.8,40.7c-1.5,1.2-1.6,3.8,0,5-.2,2,.3,4.7,0,6.6s-.5,1-.6,1.5c-.2,1,0,2.3.6,3.1v4c-.8-.3-3.5,0-3.7-.3v-21.2c1.3-1,2.3-2.2,3.6-3.3.4,1.5,0,3.1.2,4.7Z"/>
  <path class="st5" d="M57.4,12.3c-.5,2.2-.9,3.6-3.4,3.8s-9.5.3-11.5,0-2.1-2.2-2.8-3.7h17.6Z"/>
  <path class="st7" d="M61.2,90.6c.5.7.3,1.4.2,2.2-8.4,0-16.8,0-25.2,0-.2-.8-.2-1.5,0-2.2,8.3,0,16.7,0,25,0Z"/>
  <path class="st6" d="M61.2,8.2l-.2,2.2c-8.2,0-16.4,0-24.5,0-.2-.8-.2-1.5,0-2.2,8.2,0,16.5,0,24.7,0Z"/>
  <path class="st13" d="M83.3,32.5h-18l5.1-5c.6,0,2.9,3.3,3.8,3.3s.4,0,.7-.2c.8-.5,2-2.4,2.9-3s.3-.2.5-.1c.6.2,4.2,4.3,5,5Z"/>
  <path class="st5" d="M25.3,82.3c0,3.2-.6,6.6,3.2,8s5.7.3,7.7.3c-.2.8-.2,1.5,0,2.2-4.5,0-9.1.9-11.9-3.4s-1.4-4.5-1.4-7.2c.8.2,1.6.3,2.4,0Z"/>
  <path class="st5" d="M25.3,41.9c0,5.5,0,11.1,0,16.6-.8-.3-1.6-.2-2.4,0,0-5.5,0-11.1,0-16.6.8.2,1.6.3,2.4,0Z"/>
  <path class="st5" d="M61.2,8.2c4.4,0,9.1-.9,11.8,3.3s1.3,2.5,1.3,3.2v3.2h-2.2v-3.2c0-1.3-1.8-3.3-2.9-3.8-1.8-.8-6-.4-8.1-.4l.2-2.2Z"/>
  <path class="st5" d="M74.3,83.1c0,2.4.1,4.1-1.2,6.3-2.7,4.3-7.3,3.4-11.7,3.4.2-.8.4-1.5-.2-2.2,2.4,0,6.5.4,8.5-.7s2.3-4.1,2.4-6.7c.8.4,1.5.4,2.2,0Z"/>
  <path class="st5" d="M74.3,41.9c0,5.5,0,11.1,0,16.6-.7-.2-1.5-.2-2.2,0,0-5.5,0-11.1,0-16.6.7.2,1.5.2,2.2,0Z"/>
  <path class="st5" d="M36.5,8.2c-.2.8-.2,1.5,0,2.2-2.1,0-4.8-.2-6.8,0-2.9.3-4.8,3-4.4,5.9h-2.4c0-3.3,1.8-6.4,4.9-7.6s6.1-.5,8.7-.5Z"/>
  <polygon class="st4" points="64 31.2 64 21 69 26.1 64 31.2"/>
  <polygon class="st4" points="84.7 31.2 79.7 26.1 84.7 21 84.7 31.2"/>
  <path class="st7" d="M72.1,41.9c0-2.5,0-5,0-7.4h2.1c.2,2.5,0,5,0,7.4-.7.2-1.5.2-2.2,0Z"/>
  <path class="st7" d="M22.9,41.9c0-2.2,0-4.4,0-6.6,2.4-.4,1.3,1.1,1.6,2.6s.8,1,.8,1.1c.1.5,0,2.1,0,2.8-.8.3-1.6.2-2.4,0Z"/>
  <path class="st7" d="M74.3,58.4c0,1.1,0,2.2,0,3.3-.7-.2-1.4-.3-2.2,0-.2-1.1,0-2.2,0-3.3.7-.2,1.5-.2,2.2,0Z"/>
  <path class="st7" d="M22.9,82.3c0-1,0-2,0-2.9h2.4c0,1,0,2,0,2.9-.8.3-1.6.2-2.4,0Z"/>
  <path class="st7" d="M25.3,58.4c0,.7,0,1.5,0,2.2h-2.4c0-.7,0-1.5,0-2.2.8-.2,1.6-.3,2.4,0Z"/>
  <path class="st7" d="M72.1,83.1c0-.6,0-1.2,0-1.7.4,0,.7.2,1.1.2s1-.5,1.1,0,0,1,0,1.5c-.8.4-1.5.4-2.2,0Z"/>
  <path class="st11" d="M30.8,40.7c1.5-1.2,3.9-.3,4.3-.6s1.1-2.8,1.5-3.4c6.2-10.7,23.6-8,25.8,4.5s0,3.1,0,4.8.4,2,.5,2.9,0,1.3,0,2c1.5,0,2.6.5,3.6,1.6.9,1.3.8,3.4-.2,4.7s-2.5,1.4-3.6,1.2c-.4,5.2-4.1,9.9-8.9,11.7-9,3.4-18.2-2.4-19.5-11.7-1.3.1-2.8-.4-3.6-1.4s-.8-2.1-.6-3.1.5-1.1.6-1.5c1.1-1,2.2-1.3,3.6-1.4,0-1.6,0-3.1.4-4.7h-3c0,0-.9-.4-.9-.5-1.6-1.2-1.5-3.8,0-5ZM60.7,44.5c.4-8.3-6.5-13.8-14.5-12.4s-8.3,4.2-8.9,8.4c2.2.3,4.4,1.1,6.4,2.1-.3-4,3.4-7.2,7.3-5.4s2.8,2.3,2.8,3.5v3.9h7.1ZM51.7,44.5v-3.7c0-.5-1.3-1.7-1.9-1.9-3.3-1.2-4.7,1.9-4.4,4.7s1.2.9,1.3.9h4.9ZM42.9,44.5c-1.1-.9-3-1.5-4.4-1.9s-5.2-1.1-6.2-.5-.5,2.4.4,2.4h10.3ZM41.3,46.2c-.5.7-.9,1.4-1.5,2.1s-3.5,3.5-3.6,4.2,0,3.5,0,4.5c.9,15.6,21.6,16.4,24.6,2.8s.6-6.9.2-7.7-2.1-2.2-2.6-2.8c-.9-1-1.6-2.1-2.4-3.1h-14.6ZM61.1,49.3c0-.6,0-2.5-.4-2.9s-1.6,0-2.2-.2c-.3.3,2.2,2.9,2.6,3.1ZM39,46.4c-.4,0-2-.1-2.2,0s-.4,2.5-.4,2.9c1-.8,1.8-1.9,2.6-2.9ZM34.5,52.7c-3.8-.6-3.8,4.3,0,3.6v-3.6ZM63,56.4c3.7.6,3.6-4.1,0-3.6v3.6Z"/>
  <path class="st11" d="M42.1,80.2c-.3-.3-.3-1.4.1-1.6.8-.4,2.5,0,2.2,1.1s-1.9.9-2.3.5Z"/>
  <path class="st11" d="M48.1,78.5c2.3-.5,2.5,1.7.8,1.9s-2-1.6-.8-1.9Z"/>
  <path class="st11" d="M53.2,78.7c.6-.6,2.9-.3,2.2,1.1s-3.5.1-2.2-1.1Z"/>
  <path class="st11" d="M24.6,22.7c0,0,2.4,0,2.8,0,.4,0,.1-1.7,1.2-1.7s1.1.9.8,1.7c.9,0,1.9,0,1.7,1.1s-2.1.6-2.2.8-.3,1.9-.4,2.2c.9-.1,2.2,0,1.8,1.2s-1.8.2-2.4.6,0,2-1.4,1.8-.5-1.7-.6-1.9-2.9,0-3,.1c-.3.5-.1,2.1-1.4,1.8s-.6-1.8-.6-1.9c-.1-.1-1.4.4-1.6-.6-.3-1.7,1.6-.8,2.1-1.2s.6-2.1.5-2.2c-.8.2-2.2-.2-1.9-1.3s1.9-.4,2.4-.7,0-1.5.9-1.7c1.6-.3.9,1.6,1.1,1.7ZM27,24.6h-3.1l-.3,2.2h2.8c.3-.2.7-2.2.6-2.2Z"/>
  <path class="st11" d="M71.4,66.6c1-.2,1.6.4,2.3.9s3.8,2.9,4.1,3.5.3.9,0,1.4-5.2,4.5-5.8,4.5c-.9,0-1.7-.6-1.8-1.5-.2-1.4-.2-6.2,0-7.6s.6-1.2,1.2-1.3ZM72.1,68.8v5.9c.4-.5,3.8-2.6,3.8-2.9s-.3-.4-.4-.6l-3.4-2.4Z"/>
  <path class="st11" d="M23.4,65c6.6-.2,6.7,10,.1,10s-6.6-9.8-.1-10ZM23.2,66.9c-4,.4-3.4,6.7.8,6.2s3.1-6.6-.8-6.2Z"/>
  <path class="st11" d="M27.8,64.2c.8-.8,2.5.3,1.6,1.3s-2.5-.4-1.6-1.3Z"/>
  <path class="st1" d="M30.8,45.7c0,0,.9.5.9.5h3c-.4,1.5-.4,3.1-.4,4.7-1.5,0-2.5.4-3.6,1.4.3-1.9-.2-4.6,0-6.6Z"/>
  <path class="st14" d="M41.3,46.2h14.6c.9,1,1.6,2.1,2.4,3.1s2.4,2.3,2.6,2.8c.4.8,0,6.6-.2,7.7-3,13.6-23.7,12.8-24.6-2.8s-.2-3.6,0-4.5,3-3.4,3.6-4.2,1-1.4,1.5-2.1ZM40.6,49.3c-.8.2-.9,1.6.2,1.8s5.2.4,4.1-1.5-3.7-.5-4.3-.3ZM57,49.5c-.3-.3-3.5-.3-4-.2-.9.2-1,1.6,0,1.9s3.4.1,3.8-.2.5-1.1.1-1.4ZM43.2,55.3c.6-.6.3-2.6-.9-2.4-1.6.4-.4,3.7.9,2.4ZM55.5,55.3c.6-.6.2-2.9-1.1-2.3s-.1,3.5,1.1,2.3ZM44.3,61.4c-.7.2-.8,1-.4,1.5,1.2,1.4,4.1,1.9,5.9,1.7s4.9-1.5,3.7-3-2.5.9-3.3,1.2-2.1.3-3.1,0-2-1.5-2.8-1.3Z"/>
  <path class="st0" d="M60.7,44.5h-7.1v-3.9c0-1.1-1.7-3-2.8-3.5-3.9-1.8-7.5,1.4-7.3,5.4-2-.9-4.1-1.8-6.4-2.1.6-4.2,4.9-7.7,8.9-8.4,8-1.4,15,4.1,14.5,12.4Z"/>
  <path class="st3" d="M51.7,44.5h-4.9c0,0-1.3-.8-1.3-.9-.3-2.8,1.1-5.9,4.4-4.7s1.9,1.4,1.9,1.9v3.7Z"/>
  <path class="st10" d="M42.9,44.5h-10.3c-.8,0-1.5-1.8-.4-2.4s5,.2,6.2.5,3.3,1,4.4,1.9Z"/>
  <path class="st10" d="M34.5,52.7v3.6c-3.8.7-3.8-4.2,0-3.6Z"/>
  <path class="st10" d="M63,56.4v-3.6c3.6-.5,3.7,4.2,0,3.6Z"/>
  <path class="st3" d="M61.1,49.3c-.4-.2-2.9-2.9-2.6-3.1.5,0,1.8-.2,2.2.2s.4,2.3.4,2.9Z"/>
  <path class="st3" d="M39,46.4c-.8,1-1.6,2.1-2.6,2.9,0-.4.1-2.8.4-2.9s1.8,0,2.2,0Z"/>
  <path class="st9" d="M27,24.6c0,0-.3,2-.6,2.2h-2.8l.3-2.2h3.1Z"/>
  <path class="st2" d="M72.1,68.8l3.4,2.4c.2.2.4.3.4.6s-3.4,2.4-3.8,2.9v-5.9Z"/>
  <path class="st2" d="M23.2,66.9c3.9-.4,4.8,5.7.8,6.2s-4.8-5.8-.8-6.2Z"/>
  <path class="st11" d="M44.3,61.4c.8-.2,1.9,1,2.8,1.3s2,.4,3.1,0,2.6-2.1,3.3-1.2c1.2,1.5-2.7,2.9-3.7,3-1.7.2-4.7-.3-5.9-1.7s-.3-1.3.4-1.5Z"/>
  <path class="st11" d="M40.6,49.3c.5-.2,4-.1,4.3.3,1.1,1.9-3.2,1.7-4.1,1.5s-1-1.6-.2-1.8Z"/>
  <path class="st11" d="M57,49.5c.4.4.3,1.1-.1,1.4s-3.2.4-3.8.2c-1.1-.2-1-1.7,0-1.9s3.7,0,4,.2Z"/>
  <path class="st11" d="M55.5,55.3c-1.2,1.2-2.5-1.6-1.1-2.3s1.7,1.6,1.1,2.3Z"/>
  <path class="st11" d="M43.2,55.3c-1.3,1.3-2.5-1.9-.9-2.4s1.4,1.8.9,2.4Z"/>
</svg>