<svg xmlns="http://www.w3.org/2000/svg" id="Layer_1" version="1.1" viewBox="0 0 60 60">
  <!-- Generator: Adobe Illustrator 29.1.0, SVG Export Plug-In . SVG Version: 2.1.0 Build 142)  -->
  <path d="M1.9,28C3.1,8.6,24-3.7,41.7,4.4s22.3,35.3,5.4,48c-.3.2-1.6,1.2-1.9,1.1L21.9,18.3c-1-.8-3.4-1-3.6.7v24.9c.2,1.4,1.9,1.7,3,1.2s.8-.5.8-.8v-18.9l20.3,29.8c-3.1,1.7-6.7,2.7-10.3,2.9h-.2c0,.1-4,.1-4,.1l-5.2-.9c-10.4-2.7-18.6-11.3-20.6-21.8l-.5-3.3c0-1.3,0-2.7,0-4.1ZM41.8,40.6v-22.3c0-1.4-3.6-1.6-3.9-.2v16.6s3.9,5.8,3.9,5.8Z" fill="#ffffff"/>
</svg>