<?xml version="1.0" encoding="UTF-8"?>
<svg id="Layer_1" xmlns="http://www.w3.org/2000/svg" version="1.1" viewBox="0 0 100 100">
  <!-- Generator: Adobe Illustrator 29.1.0, SVG Export Plug-In . SVG Version: 2.1.0 Build 142)  -->
  <defs>
    <style>
      .st0 {
        fill: #4dd3e8;
      }

      .st1 {
        fill: #040304;
      }

      .st2 {
        fill: #4bcce0;
      }

      .st3 {
        fill: #e9e0db;
      }

      .st4 {
        fill: #61a5fb;
      }

      .st5 {
        fill: #fcd16b;
      }

      .st6 {
        fill: #010404;
      }

      .st7 {
        fill: #fc6bb3;
      }

      .st8 {
        fill: #f3efee;
      }

      .st9 {
        fill: #040303;
      }

      .st10 {
        fill: #f88f83;
      }

      .st11 {
        fill: #8de5f2;
      }

      .st12 {
        fill: #030303;
      }

      .st13 {
        fill: #f5f1ef;
      }

      .st14 {
        fill: #fdfdfd;
      }
    </style>
  </defs>
  <path class="st1" d="M71.1,3.5c.6.4.8.8.7,1.5s-.4,1.2-1.2,1.3c-6.4.4-13.4-.5-19.8,0s-6.6,3-7.1,6.7v16.5c.1.7.9.9,1.3,1.3,1.3,1.4,2.1,3.1,2.4,5v16.4c1.2.7,2.5,1,3.8,1.1,5.6.4,11.6-.3,17.2,0,1.2.4,1,1.4,1,2.4s-.1,2.8,0,4.2l6.7-5.3c2-1.4,2-1.2,4.4-1.3,4.9-.2,9.7-1.1,10.1-7.1.8-10.9-.5-22.8,0-33.7-1.4-5.5-4.9-6.1-9.8-6.2s-3,.4-2.9-1.5.2-.9.7-1.3h6c4.5.9,8.1,4.1,8.7,8.8-.5,11.2.8,23.2,0,34.3s-7.8,10.3-14.4,9.5l-10.4,7.9c-.5.5-2-.3-2-.7v-7.3h-16.4c-.7,0-2.1-.6-2.8-.7v7h12.4c2.4,0,5.2,2.1,5.9,4.4s.7,6.9.4,8.7-.5,1.4-1.4,1.4-1.5-.5-1.5-1.4v-7.7c0-.2-.8-1.4-1-1.6-1.5-1.4-4.7-.9-6.7-.9-4.8,0-9.6,0-14.4,0-1.4.3-2.4,1.3-2.8,2.7.4,6.2-.6,13,0,19.1s1.3,2.7,2.9,3.2h10.8c.6.3.9.7,1,1.3s-.1,1.3,0,1.8c1.2-.6,2.9-2.6,4-3,2-.6,4.1.7,5.7-1.8s-.5-5.6,1.9-5.7,1.6,2.3,1.5,3.6c-.3,4.8-3.7,6.9-8.2,6.6l-5.7,4.5h-1.1c-.2-.2-.9-.7-.9-1v-3.6h-9.6c-.2,0-1.8-.7-2.1-.9-1.7-1-3.2-3.3-3.2-5.3v-15.5l-7.3,5.4c-.7.4-1.8-.7-1.8-1.3v-5.1h-12.7c-3.7,0-7.7-3.7-8-7.4s.3-10.3,0-15.3c0-.7.7-1,1.3-1s1.5.5,1.5,1v15.2c0,1.6,2.6,4.2,4.2,4.4,4.7.5,10.1-.4,14.8,0s1.9.5,1.9,1.4v3.6l6.2-4.7.7-1.9c1-1.6,2.3-2.8,4.2-3.2s1.3-.3,1.4-.3h3v-26.2c0-.2-.4-1.3-.5-1.6-1.8-4.5-7-3.5-10.9-3.5-6.2,0-13.7-.5-19.7,0s-5,2.1-5.4,4.7.8,5.3-1.5,5.2-1.2-.2-1.3-.8,0-3.7,0-4.6c.4-3.9,4-7,7.8-7.3,8.8.3,17.7-.3,26.4,0s.9.2,1.4.2V12c0-.4.8-2.4,1-2.9,1.5-3.1,4.2-4.7,7.4-5.7h21.6Z"/>
  <path class="st14" d="M78.6,3.5c-.5.4-.7.6-.7,1.3l-6,.2c0-.7-.2-1.1-.7-1.5h7.5Z"/>
  <path class="st0" d="M33.3,31c4.3,3.5,2.3,9.3,2.7,14.1-.6-.2-4.2.2-4.4,0-.2-1.4,1.5-5.1.1-5.9-2.9-1.7-2.3,4.7-3.1,5.9h-3c-.3-1.5,1.9-5.8-.5-6.2s-1.8,4.8-2.4,6.1c-.3.2-5-.3-6,.2s-.9,2.6,0,2.6h5.4l-.4,3.3c-1.5.2-5.9-.8-6,1.4s.7,1.5,1.3,1.5h4.1c0,1.5-2,6.1.6,6.1s1.7-4.6,2.1-6.1h3.3c.1,1.4-1.9,6.1.6,6.1s1.6-4.6,2.3-6c.5-.4,4.9.2,5.9,0v11.6l-.7,1.9-6.2,4.7v-3.6c0-.9-1.2-1.3-1.9-1.4-4.7-.5-10,.4-14.8,0-1.6-.2-4.2-2.8-4.2-4.4v-15.2c0-.5-.9-1-1.5-1v-5.7c2.3,0,1.3-3.7,1.5-5.2.3-2.6,2.9-4.5,5.4-4.7,6-.5,13.5,0,19.7,0Z"/>
  <path class="st7" d="M64.7,76.8v6.1c-2.5,0-.8,4-1.9,5.7-1.6,2.5-3.8,1.2-5.7,1.8s-2.8,2.4-4,3c-.2-.6,0-1.2,0-1.8,5.2-1.2,3.9-6.4,4-10.5,1.9-2.3,2.5-6.5,0-8.6,0-2.5.6-5.2-1.5-7.2,2,0,5.2-.5,6.7.9s1,1.4,1,1.6v7.7c0,.8.7,1.4,1.5,1.4Z"/>
  <path class="st13" d="M77.9,4.8c0,1.9,1.6,1.4,2.9,1.5.6,1.2,1.7,1.8,2.4,3s1.1,2.4,1.2,3.7c-.6,10.9.8,22.5,0,33.2s-.8,3.6-1.9,5l-1.9,2c-2.4,0-2.4-.1-4.4,1.3-1.5.2-3.6-.3-5,0s-1,1-1.8,1.1c0-1,.2-2-1-2.4-5.6-.3-11.7.4-17.2,0s-2.6-.4-3.7-1.1v-16.4c-.4-1.9-1.2-3.5-2.5-5s-1.2-.6-1.3-1.3V12.9c.4-3.7,3.4-6.4,7-6.7,6.4-.5,13.4.4,19.8,0,.8,0,1.2-.5,1.2-1.3l6-.2ZM72.7,25.2c1.3-2.9,1.5-6,.3-9s-2-3.2-4.2-2.3-1.6,3.3-2.1,5.1c-.9,2.8-3.5,4.7-5.2,6.9-.3.1-1.2-.4-1.7-.5-1.6-.2-5-.2-6.6,0s-1.4.2-1.7.9c.2,2.3-.6,17.3.2,18.2s.6.3.9.4c.9,0,7.8,0,8.2,0s.4-.6.6-.6,1.9.9,2.4,1c2.9.8,12.4.7,15.5.4s3.2-1.2,3.6-3c-.4-4.5.6-10.1,0-14.5s-1.7-2.9-2.6-2.9h-7.6Z"/>
  <path class="st10" d="M55.5,65.2c2,1.9,1.4,4.6,1.5,7.2-1.1-.9-3.1-1.3-4.4-1.1s-1.5.8-1.7.8-1.2-.6-1.6-.8c-5.5-1.7-8.3,5.1-4.8,9.4s4.4,3.8,5.7,4.2,2-.4,2.9-.9,3.2-2.1,4-3.1c-.1,4,1.2,9.3-4,10.5,0-.7-.4-1.1-1-1.3h-10.8c-1.6-.5-2.7-1.5-2.9-3.2-.5-6.1.4-12.9,0-19.1.4-1.4,1.4-2.4,2.8-2.7,4.8,0,9.6,0,14.4,0Z"/>
  <path class="st3" d="M80.6,53.3l1.9-2c1.1-1.4,1.8-3.2,1.9-5,.8-10.8-.6-22.4,0-33.2-.2-1.3-.6-2.6-1.2-3.7s-1.8-1.8-2.4-3c4.9.1,8.5.8,9.8,6.2-.4,11,.9,22.9,0,33.7s-5.2,6.9-10.1,7.1Z"/>
  <path class="st4" d="M33.3,31c3.9,0,9.1-1,10.9,3.5s.5,1.4.5,1.6v26.2h-3c-.1,0-1.2.2-1.4.3-1.9.5-3.2,1.7-4.2,3.2v-11.6c1-.3,1.4-2.5,0-2.8v-3.5c1.3-.2,1.1-2.5,0-2.8-.4-4.8,1.5-10.6-2.7-14.1Z"/>
  <path class="st3" d="M76.2,54.5l-6.7,5.3c-.2-1.4,0-2.8,0-4.2.7-.1,1-1,1.8-1.1,1.4-.3,3.5.2,5,0Z"/>
  <path class="st6" d="M36.1,54.2c-1,.3-5.4-.3-5.9,0-.7,1.5-.1,6-2.3,6s-.5-4.7-.6-6.1h-3.3c-.4,1.5-.1,6.1-2.1,6.1s-.6-4.5-.6-6.1h-4.1c-.6,0-1.4-.9-1.3-1.5.1-2.2,4.5-1.2,6-1.4l.4-3.3h-5.4c-.9,0-1.4-2.1,0-2.6s5.7,0,6-.2c.6-1.4.2-6.5,2.4-6.1s.2,4.6.5,6.2h3c.8-1.2.2-7.6,3.1-5.9s-.3,4.5-.1,5.9c.2.2,3.8-.2,4.4,0,1.1.3,1.3,2.5,0,2.8s-4.7-.2-4.9,0l-.6,3.4c0,.3,5,0,5.5,0,1.4.3,1,2.5,0,2.8ZM28.4,47.9h-3.2c-.5,1-.5,2.4-.6,3.5h3.3l.5-3.5Z"/>
  <path class="st9" d="M57,72.4c2.5,2.2,1.9,6.3,0,8.6s-2.8,2.4-4,3.1-1.8,1.2-2.9.9-4.8-3.1-5.7-4.2c-3.5-4.3-.7-11.1,4.8-9.4s1.4.8,1.6.8c.3,0,1.1-.7,1.7-.8,1.4-.2,3.4.1,4.4,1.1ZM47,74.1c-1.6.4-1.6,2.9-1.1,4.1s3.9,4.1,5,3.8,4.2-2.8,4.7-4,.2-4-1.8-4.1-1.7,1.9-3.1,1.8-1.3-2.4-3.6-1.7Z"/>
  <path class="st12" d="M72.7,25.2h7.6c1,0,2.5,1.9,2.6,2.9.6,4.4-.4,10,0,14.5-.4,1.8-1.8,2.8-3.6,3-3.2.3-12.7.3-15.5-.4s-2.3-1-2.4-1c-.2,0-.4.5-.6.6-.4.2-7.3.2-8.2,0s-.7,0-.9-.4c-.8-.9,0-15.9-.2-18.2.3-.7,1-.8,1.7-.9,1.6-.1,5-.2,6.6,0s1.5.6,1.7.5c1.7-2.3,4.3-4.1,5.2-6.9s0-4.2,2.1-5.1,3.4.5,4.2,2.3c1.2,3,1.1,6.1-.3,9ZM70.2,16.5c-.5-.5-.4,1.3-.4,1.5-.8,5.1-5.4,8-8.2,12v10.6c.1.4,1.7,1.3,2.2,1.5,2.4,1,12.2.9,15.1.7s.9,0,1.3-.4v-14s-.6-.5-.6-.5c-2.8-.3-6.2.3-9,0s-.4-3.7,0-5.1.5-2.7.2-4.3-.6-1.9-.7-2ZM58.8,28.3h-4.6v13.8h4.6v-13.8Z"/>
  <path class="st2" d="M36.1,47.9v3.5c-.5,0-5.5.2-5.5,0l.6-3.4c.2-.2,4.2.1,4.9,0Z"/>
  <path class="st2" d="M28.4,47.9l-.5,3.5h-3.3c0-1.1.2-2.5.6-3.5h3.2Z"/>
  <path class="st8" d="M47,74.1c2.4-.6,2.3,1.7,3.6,1.7s1.2-1.9,3.1-1.8,2.5,2.4,1.8,4.1-3.5,3.7-4.7,4-4.5-2.8-5-3.8-.5-3.7,1.1-4.1Z"/>
  <path class="st5" d="M70.2,16.5c0,0,.6,1.7.7,2,.3,1.6.3,2.8-.2,4.3s-2.8,4.8,0,5.1,6.1-.3,9,0l.6.5v14c-.4.3-.9.3-1.3.4-2.9.2-12.7.3-15.1-.7s-2-1.1-2.2-1.5v-10.6c2.8-4,7.4-6.9,8.2-12s-.1-2,.4-1.5Z"/>
  <rect class="st11" x="54.2" y="28.3" width="4.6" height="13.8"/>
</svg>