<?xml version="1.0" encoding="UTF-8"?>
<svg id="Layer_1" xmlns="http://www.w3.org/2000/svg" version="1.1" viewBox="0 0 100 100">
  <!-- Generator: Adobe Illustrator 29.1.0, SVG Export Plug-In . SVG Version: 2.1.0 Build 142)  -->
  <defs>
    <style>
      .st0 {
        fill: #010101;
      }

      .st1 {
        fill: #090a0a;
      }

      .st2 {
        fill: #f9e5a3;
      }

      .st3 {
        fill: #e3e6ea;
      }

      .st4 {
        fill: #959ea9;
      }

      .st5 {
        fill: #e5e8ec;
      }

      .st6 {
        fill: #68d5f2;
      }

      .st7 {
        fill: #f7d36e;
      }

      .st8 {
        fill: #a9b1bc;
      }

      .st9 {
        fill: #fe816e;
      }

      .st10 {
        fill: #68d5f3;
      }

      .st11 {
        fill: #040404;
      }

      .st12 {
        fill: #cbd0d8;
      }

      .st13 {
        fill: #020203;
      }
    </style>
  </defs>
  <path class="st0" d="M75.2,24.8h8.4c2.6,0,6.4,3.8,6.4,6.4v5.5h5.9v26.7h-5.9v11.4c0,2.6-3.8,6.4-6.4,6.4h-18.8v5.9c5.4-.6,9.5,3.5,8.9,8.9H26.3c-.6-5.4,3.5-9.5,8.9-8.9v-5.9h-18.8c-.2,0-1.4-.4-1.7-.5-7.3-2.8-3.9-12.8-4.7-18.8-7.8-4.7-7.8-15.9,0-20.6.5-4.7-1.5-11.3,2.7-14.7s2.8-1.7,3.7-1.7h8.4V7.7c0-.1.5-1.2.6-1.4.7-1.2,2.1-2.1,3.5-2.2h41.7c1.7-.3,4.5,2.1,4.5,3.6v17.1ZM28.8,27.8h16.8v5.5c0,.2,1,.7,1.2.3l8.9-5.8c4.8-.4,10.5.5,15.2,0s1.3-.6,1.4-1.6c.5-5.7-.4-12.1,0-17.8,0-.8-.6-1.1-1.3-1.3H29.5c-.9,0-1.6.4-1.8,1.3.4,5.7-.5,12.1,0,17.8s.3,1.4,1,1.6ZM12.9,31.4v8.6c6.8-1.9,14,3,14.6,10h6.1v-4.4h8.9v14.8h3v-20.7h8.9v20.7h3v-17.8h8.9v7.4h8.9v-13.3h11.9v-5.3c0-.9-1.5-2.6-2.3-3.1-2.3-1.3-7.1-.2-9.8-.6-.5,1.3-1.9,2.8-3.4,3-4.6.6-10.4-.5-15.1,0-2.7,1.4-5.4,3.9-8,5.3s-3,.9-4.5-.3-1.3-1.7-1.3-2.2v-2.9h-14.2c-1.6-.3-2.8-1.6-3.4-3-2.6.2-5.4-.2-8,0s-3.9,1.8-4.2,3.6ZM93,39.6h-14.8v20.7h14.8v-20.7ZM14.8,42.7c-12.3,1.5-8.7,20.9,3.7,17.4,10.3-3,7.2-18.7-3.7-17.4ZM51.5,42.6h-3v17.8h3v-17.8ZM63.3,45.6h-3v14.8h3v-14.8ZM39.6,48.5h-3v11.9h3v-11.9ZM33.7,53h-6.1c-.6,7-7.9,11.9-14.6,10v3.3h74.1v-3h-11.9v-10.4h-8.9v7.4h3v3H30.7v-3h3v-7.4ZM87,69.3H12.9v5.3c0,1.5,2.7,3.9,4.3,3.6h65.8c1.5,0,4-2.3,4-3.6v-5.3ZM61.8,81.1h-23.7v5.9h23.7v-5.9ZM70.4,93c-.6-1.9-2.2-2.8-4.2-3-10.7-.8-22.2.6-33,0-1.6.2-3.2,1.4-3.6,3h40.8Z"/>
  <path class="st6" d="M12.9,31.4c.3-1.9,2.3-3.5,4.2-3.6s5.4.2,8,0c.6,1.4,1.8,2.7,3.4,3h14.2v2.9c0,.4.9,1.8,1.3,2.2,1.4,1.2,2.9,1.1,4.5.3,2.7-1.4,5.3-3.9,8-5.3,4.7-.5,10.5.6,15.1,0s2.8-1.6,3.4-3c2.7.4,7.5-.7,9.8.6s2.3,2.2,2.3,3.1v5.3h-11.9v13.3h-8.9v-7.4h-8.9v17.8h-3v-20.7h-8.9v20.7h-3v-14.8h-8.9v4.4h-6.1c-.6-7-7.9-11.9-14.6-10v-8.6Z"/>
  <path class="st12" d="M87,69.3v5.3c0,1.4-2.5,3.7-4,3.6H17.3c-1.6.3-4.3-2.1-4.3-3.6v-5.3h74.1ZM43.6,72.3c-1.7.4-1.3,3.4.8,2.9s1.3-3.4-.8-2.9ZM49.6,72.3c-1.7.4-1.3,3.4.8,2.9s1.3-3.4-.8-2.9ZM55.5,72.3c-1.7.4-1.3,3.4.8,2.9s1.3-3.4-.8-2.9Z"/>
  <path class="st3" d="M28.8,27.8c-.7-.1-1-.9-1-1.6-.5-5.7.4-12.1,0-17.8.1-1,.8-1.4,1.8-1.4h41.5c.7.2,1.2.6,1.3,1.4-.4,5.7.5,12.1,0,17.8s-.4,1.5-1.4,1.6c-4.7.5-10.4-.4-15.2,0l-8.9,5.8c-.3.3-1.2-.1-1.2-.3v-5.5h-16.8ZM42.6,14.5c-.3-4.3-4.1-4.8-7.7-4.4s-5.6,4.8-3,7.6,4.2.9,6.6,1.4,1.5,2.4.2,2.8-3.5.2-4.1,0c-1-.3-.8-1.4-.9-1.4h-3c0,1.9,1.4,3.9,3.2,4.3s5,.3,6.1-.3c4.1-1.8,3-8-1.6-8.5s-4.5.6-4.7-1.2,3.4-2,4.8-1.7,1,1.4,1.1,1.4h3ZM54.4,10h-5.1c-1.4,0-3.2,1.8-3.6,3.1s-.4,6.8-.1,8.2,2,3.5,3.3,3.5h5.5v-3h-4.9c-1,0-1.2-2.2-1-3h5.9v-3h-5.9c0-.7-.1-2,.4-2.5s.7-.4.8-.4h4.7v-3ZM61.2,10.1c-1.7.3-3.4,1.7-3.8,3.5s-.2,7.4.2,8.5c1.1,3.1,4.8,3,7.6,2.8s3.6-1.8,3.9-3.7.2-6.6,0-7.8c-.8-3.5-4.9-3.7-7.9-3.3Z"/>
  <path class="st10" d="M33.7,53v7.4h-3v3h38.5v-3h-3v-7.4h8.9v10.4h11.9v3H12.9v-3.3c6.8,1.9,14-3,14.6-10h6.1Z"/>
  <path class="st5" d="M93,39.6v20.7h-14.8v-20.7h14.8ZM90,42.6h-8.9v3h8.9v-3ZM90,48.5h-8.9v3h8.9v-3ZM90,54.5h-8.9v3h8.9v-3Z"/>
  <rect class="st8" x="38.1" y="81.1" width="23.7" height="5.9"/>
  <path class="st7" d="M14.8,42.7c10.9-1.3,14,14.4,3.7,17.4-12.3,3.5-16-15.9-3.7-17.4ZM15.1,45.6c-7.4.9-6.5,12.3,1.2,11.8,7.7-.5,6.9-12.8-1.2-11.8Z"/>
  <path class="st4" d="M70.4,93H29.6c.4-1.6,2.1-2.8,3.6-3,10.8.6,22.3-.8,33,0,1.9.1,3.6,1,4.2,3Z"/>
  <rect class="st9" x="48.5" y="42.6" width="3" height="17.8"/>
  <rect class="st9" x="60.4" y="45.6" width="3" height="14.8"/>
  <rect class="st9" x="36.7" y="48.5" width="3" height="11.9"/>
  <path class="st1" d="M43.6,72.3c2.2-.5,2.5,2.5.8,2.9s-2.5-2.5-.8-2.9Z"/>
  <path class="st1" d="M49.6,72.3c2.2-.5,2.5,2.5.8,2.9s-2.5-2.5-.8-2.9Z"/>
  <path class="st1" d="M55.5,72.3c2.2-.5,2.5,2.5.8,2.9s-2.5-2.5-.8-2.9Z"/>
  <path class="st11" d="M42.6,14.5h-3c0,0,0-1.1-1.1-1.4s-5-.6-4.8,1.7,3.4,1.1,4.7,1.2c4.6.5,5.7,6.7,1.6,8.5s-4.8.6-6.1.3-3.3-2.4-3.2-4.3h3c0,0,0,1.1.9,1.4s3.6.2,4.1,0c1.3-.4,1.2-2.5-.2-2.8-2.4-.5-4.5.7-6.6-1.4s-.8-7.2,3-7.6,7.4.1,7.7,4.4Z"/>
  <path class="st13" d="M61.2,10.1c2.9-.4,7-.2,7.9,3.3s.3,6.5,0,7.8c-.3,1.9-2,3.5-3.9,3.7-2.8.2-6.5.3-7.6-2.8-.4-1.1-.5-7.2-.2-8.5s2-3.2,3.8-3.5ZM65.9,13.4c-.6-.6-3.6-.5-4.4-.3s-1,.8-1.1,1.5c-.1,1.3-.2,4.6,0,5.9s.2.9.7,1.2,4,.3,4.6,0,.6-.7.7-1.2c.2-1.3.1-4.6,0-5.9s-.2-.9-.4-1.1Z"/>
  <path class="st13" d="M54.4,10v3h-4.7s-.7.4-.8.4c-.6.6-.4,1.8-.4,2.5h5.9v3h-5.9c-.1.7,0,3,1,3h4.9v3h-5.5c-1.3,0-3.1-2.2-3.3-3.5s-.2-7,.1-8.2,2.2-3.1,3.6-3.1h5.1Z"/>
  <rect x="81.1" y="42.6" width="8.9" height="3"/>
  <rect x="81.1" y="48.5" width="8.9" height="3"/>
  <rect x="81.1" y="54.5" width="8.9" height="3"/>
  <path class="st13" d="M15.1,45.6c8.2-1,9,11.3,1.2,11.8-7.8.5-8.6-10.9-1.2-11.8ZM15.3,48.6c-3.6.6-3,6.5,1.2,5.8s3-6.5-1.2-5.8Z"/>
  <path class="st3" d="M65.9,13.4c.2.2.4.8.4,1.1.1,1.3.2,4.6,0,5.9s-.2.9-.7,1.2-4,.3-4.6,0-.6-.7-.7-1.2c-.2-1.3-.1-4.6,0-5.9s.4-1.3,1.1-1.5,3.8-.3,4.4.3Z"/>
  <path class="st2" d="M15.3,48.6c4.2-.7,4.8,5.3,1.2,5.8s-4.8-5.3-1.2-5.8Z"/>
</svg>