<?xml version="1.0" encoding="UTF-8"?>
<svg id="Layer_1" xmlns="http://www.w3.org/2000/svg" version="1.1" viewBox="0 0 100 100">
  <!-- Generator: Adobe Illustrator 29.1.0, SVG Export Plug-In . SVG Version: 2.1.0 Build 142)  -->
  <defs>
    <style>
      .st0 {
        fill: #94be46;
      }

      .st1 {
        fill: #5f8e3e;
      }
    </style>
  </defs>
  <path class="st0" d="M60,88.1l-43.7-8.1c2-15.2,3.9-30.5,6-45.7.2-.6.4-1,1-1.2,2.7-.9,5.5-1.7,8.2-2.6,1.7-7,6.1-16.9,14.1-18.3s3.5-.3,5.1,1.1.9,1,.9,1c.2,0,1.2,0,1.6.1,3.5.6,5.7,4.2,6.7,7.4,1.1-.2,2.2-.9,3.4-.7l-3.3,67.2ZM48.5,15.1c.2-.2-.9-.5-1-.5-2-.2-4.5,1-6,2.3-3.5,3.1-5.6,8.2-7,12.6l6-1.8c1-4.9,3.1-10.3,7.9-12.6ZM57.5,22.5c-.6-2.3-2-5.2-4.5-5.6.7,2.2.9,4.5.9,6.7l3.7-1.1ZM51.3,24.4c0-1.7,0-3.6-.5-5.3s-.3-1.1-.4-1.5,0-.2-.2-.2-1,.5-1.2.6c-2.8,1.9-4.5,5.4-5.3,8.6l7.6-2.3ZM28.6,65.5l-2,6.5c2.3,2.5,5.7,4.1,9.1,4.5,8.4,1,13.6-4.7,13.1-12.8s-2.4-6.1-4.9-8.2-4.9-3.2-5.3-4.9.2-2.5,1.2-3.2c2.2-1.8,6.8-.8,9.2.4h.1s2.8-8.6,2.8-8.6c-1.1-.5-2.2-.8-3.4-.9-8.1-1.1-16.4,2.9-17.8,11.5s.3,7.2,3.3,9.9,5.7,3.8,4.9,7-5.9,1.9-8.1.4l-2.2-1.5Z"/>
  <path class="st1" d="M63.3,20.9c0,0,.2,0,.3,0,1.7,1.4,3.2,3.2,4.8,4.7l6.3.5c.2,0,.5.3.5.5l8.4,56.4-23.7,5.1,3.3-67.2Z"/>
</svg>