<?xml version="1.0" encoding="UTF-8"?>
<svg id="Layer_1" xmlns="http://www.w3.org/2000/svg" version="1.1" viewBox="0 0 100 100">
  <!-- Generator: Adobe Illustrator 29.1.0, SVG Export Plug-In . SVG Version: 2.1.0 Build 142)  -->
  <defs>
    <style>
      .st0 {
        fill: #fddf76;
      }

      .st1 {
        fill: #7f747f;
      }

      .st2 {
        fill: #a69aa6;
      }

      .st3 {
        fill: #6bf1bf;
      }

      .st4 {
        fill: #ebeef0;
      }

      .st5 {
        fill: #88c6fa;
      }

      .st6 {
        fill: #fa4654;
      }

      .st7 {
        fill: #eaedef;
      }

      .st8 {
        fill: #fcce63;
      }

      .st9 {
        fill: #262424;
      }

      .st10 {
        fill: #fa636e;
      }

      .st11 {
        fill: #00e197;
      }

      .st12 {
        fill: #d1d1d6;
      }

      .st13 {
        fill: #5fb4fa;
      }

      .st14 {
        fill: #665c66;
      }
    </style>
  </defs>
  <path class="st9" d="M8.9,70.4c-1.9-.3-3.7-2.3-3.7-4.2V15.6c.1-2.3,2-4.1,4.2-4.2h68.3c2.1,0,3.9,1.5,4.4,3.5v38.1c.2.8,3.4,3.2,4,4.1s.2.3.2.5c.2,1.8-3,5.9-2.7,7.4,1.6,3,2.9,6.1,3.9,9.3.5.6,5.2,2,6.3,2.6s.7.3.9.7.2,5.7.1,6.6-.3,1-.9,1.3h-38.4c-1.3,3.5-5.7,4.3-8,1.3s-.3-1.1-.9-1.3H7.3c-.7-.2-1.1-.7-1.2-1.4-.2-1.2-.2-4.6,0-5.8s.3-1.1.8-1.4c1.7-1,4.7-1.5,6.6-2.5l1.3-4.1c-1.8-.2-4.1.2-5.9,0ZM77.6,14.2H10c-.6-.2-1.9.7-1.9,1.2v7.7h71.2c-.2-2.3.2-5,0-7.3s-.7-1.5-1.6-1.5ZM77.6,26H8.1v40.4c0,.5,1,1.1,1.6,1.2s6.1,0,6.4,0,1.5-2.6,1.4-2.8c-.7-1.9-2-4-2.6-5.9s-.3-.8-.1-1.3l8.4-8.6c.4-.3.9-.7,1.5-.6l6.6,2.8c3.1-1.6,6.3-3.1,9.7-4,.3-.2,2-5.6,2.5-6.5s.3-.6.8-.7h12.7c.4.2.6.4.7.7.6,1.1,2,6,2.6,6.5,3.3,1,6.5,2.2,9.5,3.9.9.2,5.3-2.4,6.8-2.7s.7,0,1,0c0,.2,1.5,1.6,1.8,1.8v-24.2h-1.6ZM53.4,42.8c-2.6,0-5.2,0-7.8,0-1,2.1-1.5,4.6-2.8,6.6-2.2.8-4.4,1.4-6.5,2.3s-4.1,2.4-4.9,2.5c-1.1.1-5-2.2-6.3-2.6h-.9c0,.1-6.4,6.6-6.4,6.6-.1.6,2.3,4.9,2.6,6s-.7,2.2-1.3,3.4-1.6,3.5-2.3,5.3-.5,3.2-1.7,3.9-6.3,2.2-6.3,2.6v3.2h13c1-18.3,18.2-31.3,36.1-27,10.1,2.4,18.6,10.6,21.3,20.6s.8,4.2,1.1,6.4c2.9,0,5.8,0,8.6,0s1.8,0,2.7,0v-3.4c-.9-.3-1.9-.6-2.7-.9s-2.7-1-3.6-1.4-.7-.5-.8-.8c-.3-.6-.4-1.9-.7-2.7-1-3-2.3-5.7-3.8-8.5,0-1.3,2.9-5.9,2.7-6.8s-5.7-5.4-6.5-6.5c-.6-.3-1.1.3-1.6.5-1,.4-4.7,2.2-5.4,2.1-1.8-.9-3.5-1.9-5.4-2.7s-4.3-1.5-6.3-2.3l-2.4-6.5c-.7,0-1.3,0-2,0ZM49.8,57.8c-3.7.3-7.2,1.2-10.5,2.8l2.1,3.7c2.7-.9,5.5-1.8,8.4-1.8v-4.7ZM52.7,57.8v4.9c2.8,0,5.4,1.3,8,2.2.3-.8,2.4-3.6,2.3-4.2-3.2-1.7-6.7-2.5-10.3-2.8ZM65.5,62.1l-2.3,4.4c2.2,1.6,3.8,3.7,5.5,5.7,1.5-.5,2.9-1.6,4.3-2.3.2-.4-.4-1.2-.7-1.5-1.2-1.8-3.5-4-5.2-5.3s-1.5-1.1-1.6-1ZM29.2,69.9c.8,0,3.1,2.1,3.6,1.7s.9-1.2,1.2-1.5c.7-.8,1.6-1.7,2.3-2.4s2.3-1.6,2.4-1.9-1.6-3.3-1.8-3.4-.2,0-.3,0c-.5,0-2.8,1.9-3.3,2.3s-4.6,4.8-4.2,5.2ZM35.7,72.6c-2.3,2.9-3.8,6.4-4,10.1.2,0,.5,0,.7,0,4.8,0,9.6,0,14.3,0,.6-.7.8-1.4,1.6-2.1s1.2-.5,1.6-.9c2.1-1.7,4.7-6.3,6.8-8.4s1-1.2,2.1-.8.9.9.9,1.6c-1.2,3.5-2.7,7-3.8,10.6h13.2c-1.2-16.9-22.8-23.7-33.4-10.1ZM24.9,82.7h4c0-3,1.2-5.8,2.2-8.6-.7-.2-2.6-1.8-3.2-1.7s-.3.1-.4.3c-1.6,2.7-2.2,6.9-2.6,10ZM72,82.7h5.4c0-3.6-1.1-7.1-2.6-10.3-.6-.1-3.8,2.1-4.6,2.5.8,2.5,1.9,5.1,1.8,7.8ZM50.8,82.5c-1.9.4-1.4,3.4.5,3.2s1.7-3.7-.5-3.2Z"/>
  <path class="st4" d="M77.6,26c0,7.3,0,14.5,0,21.8s-.2.6-.2.6c-.4,0-.6-.1-1,0-1.4.3-5.9,2.9-6.8,2.7-2.9-1.8-6.2-2.9-9.5-3.9-.6-.5-1.9-5.4-2.6-6.5s-.4-.6-.7-.7h-12.7c-.4,0-.6.3-.8.6-.6,1-2.2,6.3-2.5,6.5-3.4.9-6.6,2.4-9.7,4l-6.6-2.8c-.5-.2-1,.2-1.5.6l-8.4,8.6c-.2.5,0,.9.1,1.3.6,1.9,1.9,4,2.6,5.9,0,.3-1.2,2.7-1.4,2.8-.3.2-5.7.2-6.4,0s-1.6-.6-1.6-1.2V26h69.5Z"/>
  <path class="st0" d="M53.4,42.8l2.3,5.8c.4.5,1.4.5,2.1.7,2.1.8,4.3,1.4,6.3,2.3s3.6,1.8,5.4,2.7c.7.1,4.4-1.7,5.4-2.1l5.9,5.9-2.8,6.8c1.8,3.2,3.4,6.6,4.2,10.2l2.6,1.1c0,.2.5.6.8.8.8.5,2.6,1,3.6,1.4v4.3c-2.9,0-5.8,0-8.6,0-.3-2.2-.5-4.2-1.1-6.4-2.7-10-11.1-18.2-21.3-20.6-18-4.2-35.1,8.7-36.1,27h-13v-3.2c0-.4,5.5-2.2,6.3-2.6,1.2-.7,1.2-2.7,1.7-3.9.6-1.8,1.4-3.6,2.3-5.3s1.6-2,1.3-3.4-2.7-5.4-2.6-6l6.4-6.4h.9c1.3.2,5.2,2.6,6.3,2.5s3.9-2,4.9-2.5c2.1-.9,4.4-1.5,6.5-2.3,1.3-2,1.8-4.5,2.8-6.6,2.6-.1,5.2-.1,7.8,0Z"/>
  <path class="st2" d="M77.6,14.2v8.9H8.1v-7.7c0-.5,1.3-1.3,1.9-1.2h67.7ZM16.3,16.8c-2.4.2-2.1,4,.5,3.6s1.7-3.8-.5-3.6ZM24.6,19.9c1.6-1.6-.7-4.2-2.5-2.7s.8,4.4,2.5,2.7ZM28.9,17.4c-1.7,1.7,1.2,4.3,2.7,2.5s-1.1-4.1-2.7-2.5Z"/>
  <path class="st7" d="M35.7,72.6c10.6-13.6,32.2-6.8,33.4,10.1h-13.2c1-3.6,2.5-7.1,3.8-10.6,0-.6-.2-1.4-.9-1.6-1.1-.4-1.4.1-2.1.8-2.1,2.2-4.8,6.7-6.8,8.4s-1.1.5-1.6.9c-.8.6-1,1.3-1.6,2.1-4.8,0-9.6.1-14.3,0,.1-2.4.8-4.8,1.8-7s1.2-2,1.5-3.1Z"/>
  <path class="st8" d="M84.8,76.2l-2.6-1.1c-.9-3.6-2.4-7-4.2-10.2l2.8-6.8-5.9-5.9c.5-.2,1-.8,1.6-.5.8,1.1,6.3,5.8,6.5,6.5s-2.7,5.5-2.7,6.8c1.5,2.8,2.8,5.5,3.8,8.5s.4,2,.7,2.7Z"/>
  <path class="st6" d="M72,82.7c0-2.7-1-5.3-1.8-7.8.8-.4,4-2.6,4.6-2.5,1.6,3.2,2.7,6.7,2.6,10.3h-5.4Z"/>
  <path class="st10" d="M65.5,62.1c.1,0,1.4.8,1.6,1,1.7,1.3,4,3.5,5.2,5.3s.9,1.1.7,1.5c-1.4.7-2.8,1.8-4.3,2.3-1.7-2-3.4-4.1-5.5-5.7l2.3-4.4Z"/>
  <path class="st11" d="M52.7,57.8c3.6.4,7.1,1.1,10.3,2.8.1.6-2,3.4-2.3,4.2-2.6-.9-5.2-2.2-8-2.2v-4.9Z"/>
  <path class="st3" d="M49.8,57.8v4.7c-2.9,0-5.7.9-8.4,1.8l-2.1-3.7c3.3-1.6,6.8-2.5,10.5-2.8Z"/>
  <path class="st13" d="M29.2,69.9c-.3-.4,3.7-4.7,4.2-5.2s2.8-2.4,3.3-2.3.2,0,.3,0c.2.1,1.9,3.1,1.8,3.4s-2,1.6-2.4,1.9c-.8.7-1.6,1.6-2.3,2.4s-1,1.4-1.2,1.5c-.5.3-2.8-1.6-3.6-1.7Z"/>
  <path class="st5" d="M24.9,82.7c.3-3.1,1-7.3,2.6-10s.1-.3.4-.3c.6,0,2.5,1.5,3.2,1.7-1,2.8-2.1,5.5-2.2,8.6h-4Z"/>
  <path class="st12" d="M77.6,26h1.6v24.2c-.3-.2-1.8-1.6-1.8-1.8s.2-.3.2-.6c0-7.3,0-14.5,0-21.8Z"/>
  <path class="st1" d="M77.6,14.2c.9,0,1.5.6,1.6,1.5.2,2.3-.2,5,0,7.3h-1.6v-8.9Z"/>
  <path class="st8" d="M53.4,42.8c.7,0,1.3,0,2,0l2.4,6.5c-.6-.2-1.7-.2-2.1-.7l-2.3-5.8Z"/>
  <path class="st8" d="M89.2,78.4c.8.3,1.8.6,2.7.9v3.4c-.9,0-1.8,0-2.7,0v-4.3Z"/>
  <path class="st14" d="M50.8,82.5c2.2-.4,2.7,3,.5,3.2s-2.3-2.8-.5-3.2Z"/>
  <path class="st12" d="M32.4,82.7c-.2,0-.5,0-.7,0,.2-3.7,1.7-7.2,4-10.1-.2,1.1-1,2.1-1.5,3.1-.9,2.2-1.6,4.6-1.8,7Z"/>
  <path class="st9" d="M28.9,17.4c1.6-1.6,4.2.6,2.7,2.5s-4.4-.7-2.7-2.5Z"/>
  <path class="st9" d="M24.6,19.9c-1.7,1.7-4.3-1.2-2.5-2.7s4.1,1.1,2.5,2.7Z"/>
  <path class="st9" d="M16.3,16.8c2.2-.2,2.6,3.2.5,3.6s-2.9-3.3-.5-3.6Z"/>
</svg>