<?xml version="1.0" encoding="UTF-8"?>
<svg id="Layer_1" xmlns="http://www.w3.org/2000/svg" version="1.1" viewBox="0 0 60 60">
  <!-- Generator: Adobe Illustrator 29.1.0, SVG Export Plug-In . SVG Version: 2.1.0 Build 142)  -->
  <defs>
    <style>
      .st0 {
        fill: #010101;
      }

      .st1 {
        fill: #fcfcfc;
      }

      .st2 {
        fill: #fdfdfd;
      }
    </style>
  </defs>
  <path class="st0" d="M27.7,2c24.1-1.6,39.3,25.4,24.7,44.8-12.6,16.9-38.7,14.3-47.7-4.7C-3.7,24.5,8.2,3.3,27.7,2ZM36.4,9.3c-4.4.8-7.3,4.4-7.1,8.8,4.4,0,7.7-4.7,7.1-8.8ZM35.6,17.6c-2.4.3-4.2,1.7-6.8,1.3s-6.2-2.3-9.8,0c-8,4.9-4.3,20.2,1.7,25.4,3.9,3.4,6-.3,10,0s4.5,1.9,6.9,1.2c3.2-.9,6.2-6.5,7.1-9.5-1.4-.6-2.5-1.5-3.4-2.8-2.7-3.8-1.7-8.2,1.5-11.3s.9-.6.8-.8-1.3-1.5-1.6-1.7c-1.8-1.5-4-2-6.4-1.8Z"/>
  <path class="st2" d="M35.6,17.6c2.4-.3,4.6.3,6.4,1.8s1.5,1.5,1.6,1.7-.6.6-.8.8c-3.2,3.1-4.2,7.4-1.5,11.3s2,2.1,3.4,2.8c-.9,3-3.9,8.7-7.1,9.5-2.4.7-4.5-1-6.9-1.2-4-.3-6,3.4-10,0-6.1-5.2-9.8-20.5-1.7-25.4s6.2-.6,9.8,0,4.4-1,6.8-1.3Z"/>
  <path class="st1" d="M36.4,9.3c.6,4.1-2.8,8.9-7.1,8.8-.1-4.5,2.7-8.1,7.1-8.8Z"/>
</svg>