<?xml version="1.0" encoding="UTF-8"?>
<svg id="Layer_1" xmlns="http://www.w3.org/2000/svg" version="1.1" viewBox="0 0 100 100">
  <!-- Generator: Adobe Illustrator 29.1.0, SVG Export Plug-In . SVG Version: 2.1.0 Build 142)  -->
  <defs>
    <style>
      .st0 {
        fill: #5bd9fc;
      }

      .st1 {
        fill: #fdfafb;
      }

      .st2 {
        fill: #c4022a;
      }

      .st3 {
        fill: #df022a;
      }
    </style>
  </defs>
  <path class="st0" d="M77.9,34c4.2,1.2,8.5,2.8,12.2,5.1,11.1,7,9.5,16.4-1.3,22.5s-7.2,3.2-10.9,4.4c.4,2,.9,4.1,1.2,6.1,1.2,8.5.2,22-11.8,20.3-6.5-.9-12.4-6.1-17.1-10.3-1.4,1-2.6,2.3-4,3.4-5.2,4.2-14.6,10.1-20.9,5-6.5-5.2-4.5-17.5-2.9-24.5-3.8-1.2-7.5-2.5-10.9-4.4-10.9-6.1-12.4-15.4-1.3-22.5s8-3.9,12.2-5.1c-.3-2.4-1-4.8-1.3-7.2-.7-5.7-.6-14.2,4.8-17.8s16.2,1.9,21.4,6.3,2.7,2.6,2.9,2.6c.4,0,2.5-2.1,3-2.6,5-4.2,13.7-10.2,20.5-6.8s6.4,12.4,5.7,18.4-1,4.8-1.3,7.2ZM26.2,32.9c4.2-.8,8.5-1.6,12.8-1.9,2.5-3.4,5.1-6.7,8-9.8.1-.2,0-.3,0-.4-.2-.3-2.1-2-2.5-2.4-3.5-3-10.6-8.2-15.4-6.5s-4.6,10.2-4.1,14.4.8,4.5,1.3,6.7ZM73.8,32.9c1.1-4.8,2.1-9.9,1.3-14.8-2.1-12.9-15.3-3.7-20.6,1.2s-1.6,1.3-1.4,1.8c2.9,3.1,5.4,6.5,8,9.8,4.3.4,8.5,1.2,12.8,1.9ZM55.5,30.6c0-.2,0-.3-.1-.5-.3-.6-1.6-2.1-2.2-2.7s-2.9-3.5-3.1-3.5c-.4,0-5,5.9-5.6,6.7h11ZM37.9,59.9c.3.5.6,1,.9,1.4.8,1.2,1.5,2.5,2.4,3.7.2.3.6,0,.9.1.9.1,1.5.2,2.4.1s.2,0,.3,0c.2.2.5.1.8.1,4.3,0,8.7,0,13-.3.3-.1,2.2-3.3,2.5-3.8s.5-1.1.7-1.4c.8-1.4,1.9-2.8,2.8-4.4s2.3-3.9,2.7-5.3.1-.2,0-.4c-2.5-5.2-5.5-10.1-8.6-14.9-2.5-.5-5-.4-7.5-.4s-1.7,0-2.6,0c-2.5,0-5.1,0-7.5.4-3.2,4.8-6.1,9.8-8.6,14.9,0,.3,1.5,3.3,1.8,3.8,1.1,2.1,2.4,4.2,3.6,6.2ZM35.9,35.3c-2.2.3-4.3.6-6.5,1s-2.1.4-2.1.6l3.1,8.1,5.5-9.8ZM64.1,35.3l5.5,9.8,3.1-8.1c0-.3-1.8-.5-2.1-.6-2.1-.5-4.3-.7-6.5-1ZM23.5,37.9c-4.3,1.2-8.9,2.8-12.5,5.5-9.3,6.7-2.4,12.7,5.1,16.1s4.8,2,7.3,2.6c1.4-4.1,2.9-8.1,4.6-12-1.6-4-3.4-7.9-4.6-12.1ZM76.6,62c.4.3,6.5-2.1,7.4-2.5,6-2.7,14-8.2,6.7-14.8s-9.3-5.3-14.1-6.7c-1.3,4.1-2.9,8.1-4.6,12.1,1.7,3.9,3.4,7.9,4.6,12ZM30.6,55h-.4s-2.9,8.2-2.9,8.2l8.6,1.4-5.3-9.6ZM69.8,55h-.4s-5.3,9.6-5.3,9.6l8.6-1.4-2.9-8.2ZM26.2,67c-.9,4.4-1.9,9.1-1.4,13.6,1.5,13.6,13.2,6.6,19.5,1.2s2.5-2.2,2.7-2.5.1-.3,0-.4c-2.8-3-5.4-6.3-7.8-9.7-4.3-.6-8.7-1.1-12.9-2.1ZM73.8,67c-4.3.9-8.6,1.5-12.9,2.1-2.5,3.3-5,6.6-7.8,9.7-.1.2,0,.3,0,.4.2.4,2.2,2.1,2.7,2.5,3.5,3,12,9.2,16.6,5.7,3.5-2.7,3.3-9.6,2.8-13.6s-.8-4.6-1.3-6.8ZM55.6,69.3h-11.2c1,1.4,2,2.8,3.1,4s2.3,2.8,2.6,2.7l5.5-6.7Z"/>
  <path class="st1" d="M51.3,34.5l10.6,25.4c-.2.3-.4.9-.7,1.4-.7-.1-2.9.2-3.4-.1s-2.1-6.3-2.6-6.5h-10.6c0-.1-2.5,6.6-2.5,6.6h-3.3c-.3-.5-.6-.9-.9-1.4l10.8-25.4c.9,0,1.7,0,2.6,0ZM50,41.6c0,0,.1-.3-.1-.3l-3.6,9.2h7.3c0-.2-.1-.3-.1-.3-.7-2.3-2.3-6.6-3.4-8.6Z"/>
  <path class="st2" d="M51.3,34.5c2.5,0,5.1,0,7.5.4,3.1,4.8,6.1,9.8,8.6,14.9,0,.1,0,.3,0,.4-.5,1.4-2,3.9-2.7,5.3s-1.9,3-2.8,4.4l-10.6-25.4Z"/>
  <path class="st3" d="M48.7,34.5l-10.8,25.4c-1.2-2.1-2.5-4.1-3.6-6.2s-1.9-3.5-1.8-3.8c2.5-5.2,5.5-10.1,8.6-14.9,2.5-.5,5-.4,7.5-.4Z"/>
  <path class="st2" d="M55.2,54.7c.5.2,2.1,6,2.6,6.5s2.7,0,3.4.1c-.3.5-2.2,3.7-2.5,3.8-4.3.4-8.7.4-13,.3s-.6,0-.8-.1c.3,0,.6-.1.9-.1,1.4,0,2.8,0,4.2,0v-10.5h5.2Z"/>
  <path class="st3" d="M55.2,54.7h-5.2v10.5c-1.4,0-2.8,0-4.2,0s-.6.1-.9.1-.2,0-.3,0c0-.4-.2-.3-.5-.3-.7,0-1.3,0-1.9.1-.3,0-.7.1-.9-.1-.8-1.2-1.6-2.5-2.4-3.7h3.3s2.5-6.7,2.5-6.7h10.6Z"/>
  <path class="st2" d="M42.1,65.2c.7,0,1.3-.2,1.9-.1s.6-.1.5.3c-.9,0-1.6,0-2.4-.1Z"/>
  <path class="st3" d="M50,41.6v8.6s3.4,0,3.4,0c0,0,.2,0,.1.3h-7.3s3.6-9.2,3.6-9.2c.3,0,0,.2.1.3Z"/>
  <path class="st2" d="M53.4,50.3h-3.4s0-8.6,0-8.6c1.2,2,2.8,6.3,3.4,8.6Z"/>
</svg>