<?xml version="1.0" encoding="UTF-8"?>
<svg id="Layer_1" xmlns="http://www.w3.org/2000/svg" version="1.1" viewBox="0 0 100 100">
  <!-- Generator: Adobe Illustrator 29.1.0, SVG Export Plug-In . SVG Version: 2.1.0 Build 142)  -->
  <defs>
    <style>
      .st0 {
        fill: #fcfcfc;
      }

      .st1 {
        fill: #20303c;
      }

      .st2 {
        fill: #fdfdfd;
      }
    </style>
  </defs>
  <path class="st1" d="M52.7,7.6c.2,0,.4,0,.5,0,.4-.1.3.4.5.4.4,0,1.3-.3,2-.2s1.1.3,1.6.4c1.1.2,2.3.6,3.4.7s.2,0,.4,0h.2c.8.6,1.4.5,2.1.7,1.6.6,3.8,1.4,5.4,2.1s3.9,2.1,5.4,3,.8.6,1.3.9.9.6,1.3.9c1.5,1.2,3.7,3.1,5,4.5s1.6,1.8,2.3,2.7.2.8.7.9c0,.6,1.1,1.5,1.4,2s0,.4.2.6c.3.5.7,1.1,1.1,1.5,0,.2.2.3.2.4.3,1,1,1.8,1.4,2.7.8,1.8,1.5,3.7,2.1,5.5s.2,1.3.7,2c.1,1.4.4,3,.9,4.3,0,.7.2,1.3.2,1.8s0,.4,0,.5,0,.1,0,.2c0,.2,0,.4,0,.5,0,1.3.2,2.4.2,3.8s0,.7,0,1.1,0,.1,0,.2c0,.2,0,.5,0,.7,0,1.1-.4,2.3-.4,3.4s0,.2,0,.4c-.4.7-.2,1.7-.4,2.3s-.5,1.9-.7,2.7-.6,1.9-.9,2.7c-.5,1.4-1.3,3.7-2,5s-2.3,4-3.6,5.7-.4.5-.5.7c-.4.6-1,1.2-1.4,1.8s-.8,1-1.3,1.4-.9,1.1-1.3,1.4-1,.8-1.4,1.3-1,.8-1.4,1.3-.9.8-1.3,1.1c-.6.5-1.5,1.2-2.1,1.6s-.2,0-.4.2c-.8.5-1.8,1.1-2.7,1.6s-1.1.6-1.6.9-1,.6-1.3.7c-.6.3-2,.8-2.7,1.1-1.6.6-3.6,1.2-5.2,1.6s-1.8.4-2.7.5-1.9.4-2.9.5-.2,0-.4,0-.1,0-.2,0c-.2,0-.4,0-.5,0s-.5.1-.7.2c-.2,0-.5,0-.7,0-1.4,0-2.7,0-4.1,0s-.8,0-1.3,0c-.9,0-2.2,0-3-.2s-1.1-.3-1.6-.4-.1,0-.2,0c-.1,0-.2,0-.4,0-.9-.2-1.9-.6-2.9-.7s-.2,0-.4,0h-.2c-.4-.3-1.3-.7-1.8-.7s-.4,0-.5,0c-.6-.6-1.8-.6-2.5-.9s-1.9-.9-2.7-1.3-.7-.3-.9-.4c-.4-.2-1.2-.8-1.8-1.1-.8-.5-1.9-1.1-2.7-1.6s-.3-.1-.4-.2c-.6-.4-1.4-1-2-1.4s-1.2-.9-1.6-1.3-.9-.8-1.3-1.1c-.5-.4-1.1-1.1-1.6-1.6s-.8-.8-1.1-1.1-1.1-1.2-1.4-1.6-.9-1.2-1.3-1.6-.6-.9-.9-1.3c-.9-1.4-2.3-3.6-3-5s-1.8-3.9-2.3-5.5-.5-1.7-.7-2.5c-.4-1.5-.5-3-1.1-4.5,0-.3,0-.6,0-.9,0-.7-.1-1.3-.2-2,0-1.1-.2-2.2-.2-3.4s0-1.8,0-2.7.4-2.2.4-3.2,0-.4,0-.5l1.6-7c.2-.7,1-2,1.1-2.7s0-.1,0-.2c.6-.6.7-1.8,1.1-2.5s1-2,1.4-2.7,1.3-1.9,1.8-2.7.7-1,1.1-1.4.6-.9.9-1.3c.5-.6,1.2-1.3,1.8-2s.4-.5.5-.7c1.3-1.4,3.3-3.1,4.8-4.3s1-.8,1.4-1.1.7-.5,1.1-.7c1.6-1.1,3.6-2.2,5.4-3s3.7-1.6,5.4-2.1,1.9-.5,2.7-.7c2.1-.5,4.6-1,6.7-.9s.7.2.6-.3c2,0,4.1,0,6.1,0ZM23,55c-1.3-4.7-2.3-9.5-3.6-14.2s-.5-2.1-1-2.9c-1.2-1.9-3.5-2.6-5.6-2.4l7.5,29c1.7,0,3.6,0,5-1.2s1.7-2.8,2.1-4.3c1.4-4.7,2.1-10.5,3.7-14.9s1.7-.8,2.2.8c1.5,5,2.2,11.6,4.1,16.3s2.4,3.4,4.1,3.5,2.2,0,2.4-.4l7.5-28.7c-2.9-.2-5.2.7-6.2,3.5-1.6,4.7-2.5,10.4-3.9,15.2s0,.6-.3.7l-3.7-14c-1.2-4.9-7.7-5.8-10-1.3s-2.4,10.4-3.9,14.7,0,.5-.4.6ZM58.6,35.5c-4.1-.5-5.4,2.4-5.2,6.1,2.7-1.5,5.6-2.2,5.2-6.1ZM87.2,35.5h-3.1c-3.8,0-6.8,7.1-9,9.6-.6.7-.8,1-1.5.3-2.3-2.5-5.3-9.9-9.2-9.9h-3.1l9.3,14.6-9.5,14.4h2.8c.9,0,3.5-1.1,4.1-1.8l5.6-8.2c.3-.4.8-.3,1.2,0,2,2.4,4.5,7.9,7.3,9.2s2.1.7,2.5.7h2.6l-9.5-14.4,9.5-14.6ZM58.4,40.4c-.6,0-.8.8-1.2,1.1-.5.4-1.8.8-2.5,1.2s-.8.7-1.3.9v20.7c1.4.1,3.6,0,4.4-1.4s.6-1.2.6-1.4v-21.2Z"/>
  <path class="st2" d="M23,55c.3,0,.3-.4.4-.6,1.5-4.4,1.9-10.8,3.9-14.7s8.8-3.6,10,1.3l3.7,14c.3-.2.3-.5.3-.7,1.4-4.8,2.3-10.6,3.9-15.2s3.4-3.7,6.2-3.5l-7.5,28.7c-.2.4-1.9.4-2.4.4-1.7,0-3.5-1.9-4.1-3.5-1.9-4.7-2.7-11.3-4.1-16.3s-1.3-3.3-2.2-.8c-1.6,4.4-2.3,10.2-3.7,14.9s-.8,3.3-2.1,4.3-3.3,1.3-5,1.2l-7.5-29c2.1-.2,4.4.5,5.6,2.4s.7,2,1,2.9c1.3,4.7,2.4,9.5,3.6,14.2Z"/>
  <path class="st2" d="M87.2,35.5l-9.5,14.6,9.5,14.4h-2.6c-.4,0-2.1-.5-2.5-.7-2.8-1.3-5.3-6.8-7.3-9.2-.4-.3-.9-.4-1.2,0l-5.6,8.2c-.7.7-3.2,1.8-4.1,1.8h-2.8l9.5-14.4-9.3-14.6h3.1c3.9,0,6.9,7.4,9.2,9.9s.9.4,1.5-.3c2.1-2.5,5.2-9.6,9-9.6h3.1Z"/>
  <path class="st2" d="M58.4,40.4v21.2c0,.2-.4,1.2-.6,1.4-.9,1.3-3,1.5-4.4,1.4v-20.7c.5-.2.8-.6,1.3-.9.7-.4,1.9-.8,2.5-1.2s.6-1.1,1.2-1.1Z"/>
  <path class="st0" d="M58.6,35.5c.4,3.8-2.4,4.6-5.2,6.1-.2-3.7,1-6.5,5.2-6.1Z"/>
</svg>