<?xml version="1.0" encoding="UTF-8"?>
<svg id="Layer_1" xmlns="http://www.w3.org/2000/svg" version="1.1" viewBox="0 0 100 100">
  <!-- Generator: Adobe Illustrator 29.1.0, SVG Export Plug-In . SVG Version: 2.1.0 Build 142)  -->
  <defs>
    <style>
      .st0 {
        fill: #9b5c8f;
      }

      .st1 {
        fill: #fff;
      }
    </style>
  </defs>
  <path class="st0" d="M12.3,22.5h75.3c4.8,0,8.6,3.9,8.6,8.6v28.7c0,4.8-3.9,8.6-8.6,8.6h-27l3.7,9.1-16.3-9.1H12.4c-4.8,0-8.6-3.9-8.6-8.6v-28.7c0-4.7,3.8-8.6,8.6-8.6h0Z"/>
  <path class="st1" d="M9,30.3c.5-.7,1.3-1.1,2.4-1.2,1.9-.2,3,.8,3.3,2.7,1.2,7.9,2.4,14.5,3.8,20l8.2-15.7c.8-1.4,1.7-2.2,2.8-2.3,1.7-.1,2.7.9,3.1,3.2.9,5,2.1,9.3,3.6,12.9,1-9.6,2.6-16.4,5-20.7.6-1.1,1.4-1.6,2.5-1.7.9,0,1.7.2,2.4.8.7.6,1.1,1.3,1.2,2.1,0,.7,0,1.2-.4,1.8-1.5,2.7-2.7,7.3-3.6,13.6-.9,6.1-1.3,10.9-1.1,14.3,0,.9,0,1.8-.5,2.5-.5.8-1.1,1.3-2,1.4-1,0-2-.4-3-1.4-3.5-3.6-6.3-8.9-8.3-16-2.4,4.8-4.2,8.4-5.4,10.8-2.2,4.2-4.1,6.4-5.7,6.5-1,0-1.9-.8-2.6-2.6-1.9-4.9-4-14.4-6.2-28.5-.2-1,0-1.8.6-2.5h0ZM89.8,36.2c-1.4-2.4-3.3-3.8-6-4.4-.7-.2-1.4-.2-2-.2-3.6,0-6.5,1.9-8.8,5.6-2,3.2-2.9,6.7-2.9,10.6s.6,5.4,1.8,7.4c1.4,2.4,3.3,3.8,6,4.4.7.2,1.4.2,2,.2,3.6,0,6.6-1.9,8.8-5.6,2-3.2,2.9-6.8,2.9-10.6,0-2.9-.6-5.4-1.8-7.4h0ZM85.1,46.6c-.5,2.5-1.5,4.3-2.9,5.6-1.1,1-2.1,1.4-3,1.2-.9-.2-1.7-1-2.2-2.4-.5-1.2-.7-2.3-.7-3.4s0-1.9.3-2.7c.3-1.5,1-3,2-4.5,1.2-1.8,2.6-2.6,3.9-2.3.9.2,1.7,1,2.2,2.4.5,1.2.7,2.3.7,3.4s0,1.9-.3,2.8ZM66.3,36.2c-1.4-2.4-3.4-3.8-6-4.4-.7-.2-1.4-.2-2-.2-3.6,0-6.5,1.9-8.8,5.6-2,3.2-2.9,6.7-2.9,10.6s.6,5.4,1.8,7.4c1.4,2.4,3.3,3.8,6,4.4.7.2,1.4.2,2,.2,3.6,0,6.6-1.9,8.8-5.6,2-3.2,2.9-6.8,2.9-10.6s-.6-5.4-1.8-7.4h0ZM61.5,46.6c-.5,2.5-1.5,4.3-2.9,5.6-1.1,1-2.1,1.4-3,1.2-.9-.2-1.7-1-2.2-2.4-.5-1.2-.7-2.3-.7-3.4s0-1.9.3-2.7c.3-1.5,1-3,2-4.5,1.2-1.8,2.6-2.6,3.9-2.3.9.2,1.7,1,2.2,2.4.5,1.2.7,2.3.7,3.4,0,1,0,1.9-.3,2.8Z"/>
</svg>