<?xml version="1.0" encoding="UTF-8"?>
<svg id="Layer_1" xmlns="http://www.w3.org/2000/svg" version="1.1" viewBox="0 0 100 100">
  <!-- Generator: Adobe Illustrator 29.1.0, SVG Export Plug-In . SVG Version: 2.1.0 Build 142)  -->
  <defs>
    <style>
      .st0 {
        fill: #148ec3;
      }
    </style>
  </defs>
  <path class="st0" d="M43.8,3.4c34.7-3.7,61.6,27.9,50.8,61.5-12.4,38.6-66.2,43.4-85.7,7.9C-6.9,44.3,11.2,7,43.8,3.4ZM42.4,6.1c-13.4,1.7-27.1,12.8-32.7,24.8-19,40.5,26.9,80.7,64.5,56.5C113.6,62,91.7,0,42.4,6.1Z"/>
  <path class="st0" d="M17.2,28c-1.1-.9,6.1-7.9,7-8.7,12.8-10.8,30.9-12.3,45.6-4.1,1,.6,5.9,3.9,6.2,4.5.7,1.4-4,1.4-4.4,3-5,6.3,1.1,11.5,3.4,16.7,5.1,11.8-2.5,22-4.4,33.4l-1.5-.9-13.2-40.6c2.4,0,7.2-.1,5.1-3.4s-3.8,0-5.4,0c-4.4.1-9,0-13.4,0s-5.1-1.6-5.7,1c-.5,2.4,5.5,1.9,6.1,2.7l5.9,16.7-8.3,25.1-14.4-41.1c-.2-1.5.1-.8,1-1,2.3-.6,5.4.2,4.3-2.9s-3-.4-3.6-.4h-10.4Z"/>
  <path class="st0" d="M51.3,54.7l11.3,33.4c-7.7,2.5-15.5,2.7-23.3.7l10.6-33.1,1.4-.9Z"/>
  <path class="st0" d="M13.8,34.7l18.1,50.8c-17.7-7.3-27.4-32.5-19.5-49.9.4-.8-.3-1.2,1.4-.9Z"/>
  <path class="st0" d="M70.7,84.1l13-38.8,2.3-13.4c8.8,18.7,2.7,41.8-15.4,52.1Z"/>
</svg>