<?xml version="1.0" encoding="UTF-8"?>
<svg id="Layer_1" xmlns="http://www.w3.org/2000/svg" version="1.1" viewBox="0 0 633.3 241.3">
  <!-- Generator: Adobe Illustrator 29.1.0, SVG Export Plug-In . SVG Version: 2.1.0 Build 142)  -->
  <defs>
    <style>
      .st0 {
        font-family: PlayfairDisplay-SemiBold, 'Playfair Display';
        font-size: 150.6px;
        font-weight: 600;
      }

      .st1 {
        fill: #0e2a4b;
      }

      .st2 {
        font-family: ArialMT, Arial;
        font-size: 35.4px;
      }

      .st3 {
        fill: #f47f20;
      }
    </style>
  </defs>
  <text class="st2" transform="translate(211.8 215.8)"><tspan x="0" y="0">Web Solution</tspan></text>
  <text class="st0" transform="translate(183.1 161.6)"><tspan x="0" y="0">adhya</tspan></text>
  <g>
    <path class="st1" d="M61.6,137.1L109.5,25.5l29.2,66.6s-14.5-2-18.6,1l-10.3-20.9-12.8,29.8s36.9-13.8,60.4-1.8c0,0-45.5-5.5-95.8,36.9Z"/>
    <path class="st3" d="M42.4,161.6s66.1-74.2,125.5-54.7c0,0-47.4-5-86.9,54.7h-38.7Z"/>
    <path class="st1" d="M105.1,140s22.3-23.5,43-26.3l13.4,30.4s4.9,14.2,17.6,14.2v3.8h-50.9v-3.9s15.8.6,12.4-12.8l-7.1-17.8s-1.7-1.5-4-.2c0,0-20.1,9.3-24.4,12.6Z"/>
  </g>
</svg>