<svg xmlns="http://www.w3.org/2000/svg" width="50" height="50" viewBox="0 0 50 50" fill="none">
    <path
        d="M42.3889 18.2351C41.4912 18.157 39.7738 18.6254 38.9932 22.4505C38.9932 24.7534 39.5396 26.1586 40.3983 26.666C41.9986 27.1344 43.8722 24.9876 43.8722 22.6847C43.9502 21.0844 44.0283 19.0938 42.3889 18.2351Z"
        fill="white" />
    <path
        d="M45.3942 10H4.56674C2.02966 10 0 12.0297 0 14.5277V30.1405C0 32.6386 2.02966 34.7073 4.56674 34.7073H45.4332C47.9313 34.7073 50 32.6776 50 30.1405V14.5277C49.961 12.0297 47.9313 10 45.3942 10ZM17.1741 31.1553C17.1741 31.1553 14.4809 27.6034 13.8564 24.9102C13.2318 22.2561 13.0757 23.466 13.0757 23.466C13.0757 23.466 10.929 28.306 8.70413 31.3895C6.47931 34.4731 5.38642 29.8673 5.38642 29.8673C4.60578 28.9305 2.38095 15.3084 2.38095 15.3084C3.62998 11.8345 5.77674 14.6838 5.77674 14.6838L7.9235 25.7689C7.9235 25.7689 11.2412 18.9774 12.3731 17.2209C13.466 15.4645 15.3786 15.9719 15.5347 17.7674C15.6909 19.6019 17.5254 24.5589 17.5254 24.5589C17.6815 19.3286 19.8283 14.3326 20.1405 13.5519C20.4528 12.7713 23.9266 11.7955 23.3021 15.1522C21.7799 18.8603 20.2966 26.7057 20.687 30.9992C19.6331 34.2389 17.1741 31.1553 17.1741 31.1553ZM31.1866 29.3989C30.1717 29.8673 26.3856 32.4824 23.6924 26.6276C22.014 20.7338 25.7611 16.4012 25.7611 16.4012C25.7611 16.4012 30.6401 12.2248 33.9578 17.7674C36.651 23.8564 32.2014 28.9305 31.1866 29.3989ZM43.5987 29.3989C42.5839 29.8673 38.7978 32.4824 36.1046 26.6276C34.4262 20.7338 38.1733 16.4012 38.1733 16.4012C38.1733 16.4012 43.0913 12.1858 46.409 17.7283C49.1023 23.8564 44.6136 28.9305 43.5987 29.3989Z"
        fill="white" />
    <path
        d="M29.9377 18.2351C29.04 18.157 27.3225 18.6254 26.5419 22.4505C26.5419 24.7534 27.0884 26.1586 27.9471 26.666C29.5474 27.1344 31.4209 24.9876 31.4209 22.6847C31.538 21.0844 31.6161 19.0938 29.9377 18.2351ZM23.9268 34.7066L32.6309 39.8198L30.7964 34.7066L25.8003 33.3014L23.9268 34.7066Z"
        fill="white" />
</svg>