<svg xmlns="http://www.w3.org/2000/svg" width="46" height="50" viewBox="0 0 46 50" fill="none">
    <path
        d="M31.1528 5.90511C31.1528 5.90511 30.5906 6.07379 29.6347 6.38304C29.466 5.877 29.2411 5.23039 28.9038 4.6119C27.8355 2.55963 26.2611 1.49132 24.3494 1.46321C24.2088 1.46321 24.0964 1.46321 23.9558 1.49132C23.8996 1.4351 23.8434 1.35076 23.7871 1.29453C22.9719 0.394903 21.9036 -0.0267963 20.6385 0.00131695C18.1926 0.0856569 15.7467 1.8568 13.7507 5.00549C12.345 7.22644 11.3048 10.0097 10.9956 12.1463C8.18426 13.0178 6.21633 13.6363 6.16011 13.6363C4.72633 14.0861 4.69822 14.1423 4.50142 15.4636C4.36086 16.4757 0.649902 45.2637 0.649902 45.2637L31.5183 50.6053V5.84888C31.3777 5.84888 31.2372 5.877 31.1528 5.90511ZM24.012 8.12606C22.3815 8.6321 20.5822 9.19437 18.8111 9.72852C19.3171 7.7887 20.273 5.877 21.4537 4.6119C21.9036 4.13397 22.4939 3.62793 23.2249 3.31869C23.8996 4.75246 24.0402 6.74851 24.012 8.12606ZM20.6666 1.63189C21.2288 1.63189 21.7349 1.74434 22.1566 2.02547C21.4819 2.36283 20.8634 2.86887 20.2449 3.51548C18.6986 5.17416 17.4898 7.7887 17.0118 10.2908C15.5218 10.7406 14.0881 11.1904 12.7386 11.6121C13.582 7.64813 16.8994 1.74434 20.6666 1.63189ZM15.8873 24.0944C16.056 26.709 22.9719 27.2993 23.3654 33.4561C23.6747 38.2916 20.8071 41.609 16.6464 41.862C11.6984 42.1713 8.94332 39.2475 8.94332 39.2475L9.98351 34.7775C9.98351 34.7775 12.7386 36.8579 14.9315 36.7173C16.3652 36.6329 16.8713 35.4522 16.8432 34.6369C16.6183 31.2071 10.9956 31.4039 10.6582 25.7812C10.349 21.0301 13.4696 16.2508 20.3292 15.801C23 15.6323 24.3494 16.307 24.3494 16.307L22.7751 22.1827C22.7751 22.1827 21.032 21.3955 18.9517 21.508C15.9154 21.7048 15.8592 23.6165 15.8873 24.0944ZM25.6426 7.62002C25.6145 6.38304 25.4739 4.64001 24.8836 3.15001C26.739 3.51548 27.6668 5.59586 28.0604 6.86096C27.3575 7.08587 26.5422 7.33889 25.6426 7.62002ZM32.5304 50.4928L45.35 47.316C45.35 47.316 39.8398 10.0378 39.8117 9.78475C39.7836 9.53173 39.5587 9.39116 39.3619 9.36305C39.1651 9.33493 35.5666 9.27871 35.5666 9.27871C35.5666 9.27871 33.3738 7.1421 32.5304 6.32681V50.4928Z"
        fill="white" />
</svg>