<svg xmlns="http://www.w3.org/2000/svg" width="50" height="50" viewBox="0 0 50 50" fill="none">
    <g clip-path="url(#clip0_590_5337)">
        <path
            d="M26.3438 28.465H32.6501C34.4438 28.465 35.5793 27.4775 35.5793 25.8921C35.5793 24.3983 34.4438 23.3212 32.6501 23.3212H26.3438C26.1355 23.3212 25.9543 23.5004 25.9543 23.6796V28.1067C25.9855 28.315 26.1334 28.465 26.3438 28.465ZM26.3438 38.665H32.8605C34.8626 38.665 36.0584 37.6483 36.0584 35.8525C36.0584 34.2983 34.923 33.04 32.8605 33.04H26.3438C26.1355 33.04 25.9543 33.2212 25.9543 33.4004V38.2754C25.9855 38.515 26.1334 38.665 26.3438 38.665ZM49.4168 0.110829L30.7647 18.715H33.8147C38.5668 18.715 41.3772 21.7046 41.3772 24.965C41.3772 27.5379 39.6438 29.4233 37.7897 30.2587C37.4918 30.3796 37.4918 30.7983 37.8188 30.9171C39.9709 31.7546 41.4959 34.0004 41.4959 36.6296C41.4959 40.3379 39.0168 43.3004 34.2043 43.3004H20.9918C20.7834 43.3004 20.6022 43.1212 20.6022 42.9421V28.8546L0.129265 49.2504C-0.141568 49.5212 0.0396817 49.9983 0.427182 49.9983H49.6584C49.7454 49.9972 49.8285 49.9622 49.89 49.9007C49.9515 49.8392 49.9865 49.7561 49.9876 49.6692V0.379579C50.0772 0.0504126 49.6584 -0.128754 49.4188 0.108746L49.4168 0.110829Z"
            fill="white" />
    </g>
    <defs>
        <clipPath id="clip0_590_5337">
            <rect width="50" height="50" fill="white" />
        </clipPath>
    </defs>
</svg>