<svg xmlns="http://www.w3.org/2000/svg" width="50" height="50" viewBox="0 0 50 50" fill="none">
    <path
        d="M25.5 0.5C11.725 0.5 0.5 11.725 0.5 25.5C0.5 39.275 11.725 50.5 25.5 50.5C39.275 50.5 50.5 39.275 50.5 25.5C50.5 11.725 39.275 0.5 25.5 0.5ZM3.025 25.5C3.025 22.25 3.725 19.15 4.975 16.35L15.7 45.725C8.2 42.075 3.025 34.4 3.025 25.5ZM25.5 47.975C23.3 47.975 21.175 47.65 19.15 47.05L25.9 27.45L32.8 46.375C32.85 46.475 32.9 46.6 32.95 46.675C30.625 47.525 28.125 47.975 25.5 47.975ZM28.6 14.95C29.95 14.875 31.175 14.725 31.175 14.725C32.375 14.575 32.25 12.8 31.025 12.875C31.025 12.875 27.375 13.15 25.025 13.15C22.825 13.15 19.1 12.875 19.1 12.875C17.9 12.825 17.75 14.675 18.975 14.75C18.975 14.75 20.125 14.9 21.325 14.975L24.825 24.575L19.9 39.325L11.725 14.95C13.075 14.9 14.3 14.75 14.3 14.75C15.5 14.6 15.375 12.825 14.15 12.9C14.15 12.9 10.5 13.175 8.15 13.175C7.725 13.175 7.225 13.175 6.7 13.15C10.75 7.05 17.65 3.025 25.5 3.025C31.35 3.025 36.675 5.25 40.675 8.925C40.575 8.925 40.475 8.9 40.375 8.9C38.175 8.9 36.6 10.825 36.6 12.9C36.6 14.75 37.675 16.325 38.8 18.175C39.65 19.675 40.65 21.6 40.65 24.375C40.65 26.3 39.9 28.525 38.95 31.65L36.7 39.15L28.6 14.95ZM45.225 14.725C48.033 19.8641 48.7238 25.8964 47.1501 31.5372C45.5765 37.1781 41.8628 41.9817 36.8 44.925L43.675 25.075C44.95 21.875 45.375 19.3 45.375 17.025C45.375 16.2 45.325 15.425 45.225 14.725Z"
        fill="white" />
</svg>